<?xml version="1.0" encoding="UTF-8"?>
<!DOCTYPE svg PUBLIC "-//W3C//DTD SVG 1.1//EN" "http://www.w3.org/Graphics/SVG/1.1/DTD/svg11.dtd">
<svg xmlns="http://www.w3.org/2000/svg" version="1.1" width="1179px" height="374px" style="shape-rendering:geometricPrecision; text-rendering:geometricPrecision; image-rendering:optimizeQuality; fill-rule:evenodd; clip-rule:evenodd" xmlns:xlink="http://www.w3.org/1999/xlink">
<g><path style="opacity:1" fill="#fefefe" d="M -0.5,-0.5 C 392.5,-0.5 785.5,-0.5 1178.5,-0.5C 1178.5,124.167 1178.5,248.833 1178.5,373.5C 785.5,373.5 392.5,373.5 -0.5,373.5C -0.5,248.833 -0.5,124.167 -0.5,-0.5 Z"/></g>
<g><path style="opacity:1" fill="#e0dbd0" d="M 716.5,75.5 C 717.209,74.596 718.209,74.2627 719.5,74.5C 718.991,79.1598 717.658,83.4931 715.5,87.5C 715.883,83.6807 716.883,80.014 718.5,76.5C 718.043,75.7025 717.376,75.3691 716.5,75.5 Z"/></g>
<g><path style="opacity:1" fill="#948974" d="M 366.5,87.5 C 364.723,90.5046 363.723,93.8379 363.5,97.5C 357.623,115.631 352.456,133.965 348,152.5C 355.299,143.531 364.465,137.364 375.5,134C 393.598,131.122 405.431,138.288 411,155.5C 412.212,184.575 401.379,208.075 378.5,226C 355.922,242.312 333.255,242.479 310.5,226.5C 309.369,224.926 309.202,223.259 310,221.5C 316.406,198.249 323.239,175.249 330.5,152.5C 331.924,150.485 332.59,148.152 332.5,145.5C 334.277,142.495 335.277,139.162 335.5,135.5C 335.721,132.933 336.388,130.599 337.5,128.5C 339.277,125.495 340.277,122.162 340.5,118.5C 342.516,109.101 344.85,99.7681 347.5,90.5C 346.657,87.4929 344.657,85.6596 341.5,85C 337.797,84.4213 334.131,84.588 330.5,85.5C 330.227,83.549 330.893,82.049 332.5,81C 343.527,79.2472 354.527,77.4139 365.5,75.5C 366.833,75.8333 368.167,76.1667 369.5,76.5C 367.719,79.9558 366.719,83.6224 366.5,87.5 Z"/></g>
<g><path style="opacity:1" fill="#948974" d="M 540.5,87.5 C 538.723,90.5046 537.723,93.8379 537.5,97.5C 535.596,101.982 534.263,106.649 533.5,111.5C 531.723,114.505 530.723,117.838 530.5,121.5C 528.723,124.505 527.723,127.838 527.5,131.5C 525.592,135.903 524.259,140.57 523.5,145.5C 522.076,147.515 521.41,149.848 521.5,152.5C 520.061,154.588 519.394,156.921 519.5,159.5C 517.076,164.847 515.409,170.513 514.5,176.5C 513.076,178.515 512.41,180.848 512.5,183.5C 510.723,186.505 509.723,189.838 509.5,193.5C 508.076,195.515 507.41,197.848 507.5,200.5C 504.831,207.021 502.831,213.854 501.5,221C 502.306,225.492 504.639,226.492 508.5,224C 512.535,220.3 516.202,216.3 519.5,212C 520.833,211.333 522.167,211.333 523.5,212C 524.451,212.718 524.617,213.551 524,214.5C 517.737,224.097 509.57,231.597 499.5,237C 493.164,240.049 488.497,238.549 485.5,232.5C 485.334,228.154 485.501,223.821 486,219.5C 488.079,216.517 488.913,213.183 488.5,209.5C 489.135,206.127 489.635,202.794 490,199.5C 482.629,210.544 474.129,220.71 464.5,230C 458.562,234.481 451.896,237.315 444.5,238.5C 435.977,237.579 429.977,233.246 426.5,225.5C 424.632,217.942 424.132,210.275 425,202.5C 425.934,195.988 427.434,189.655 429.5,183.5C 438.592,160.575 454.592,144.408 477.5,135C 488.885,131.133 498.552,133.633 506.5,142.5C 512.666,124.826 517.499,106.826 521,88.5C 519.871,86.8588 518.371,85.8588 516.5,85.5C 513.375,84.5206 510.042,84.1872 506.5,84.5C 506.5,83.5 506.5,82.5 506.5,81.5C 507.791,81.7373 508.791,81.404 509.5,80.5C 519.444,78.6503 529.444,76.9836 539.5,75.5C 540.833,75.8333 542.167,76.1667 543.5,76.5C 542.191,80.1071 541.191,83.7738 540.5,87.5 Z"/></g>
<g><path style="opacity:1" fill="#deddd5" d="M 959.5,75.5 C 960.209,74.596 961.209,74.2627 962.5,74.5C 963.054,78.7437 962.054,82.4103 959.5,85.5C 959.647,82.5569 960.313,79.7236 961.5,77C 961.164,75.9701 960.497,75.4701 959.5,75.5 Z"/></g>
<g><path style="opacity:1" fill="#d7d4cf" d="M 276.5,79.5 C 277.919,78.5489 279.585,78.2155 281.5,78.5C 281.784,80.4147 281.451,82.0813 280.5,83.5C 280.5,82.1667 280.5,80.8333 280.5,79.5C 279.167,79.5 277.833,79.5 276.5,79.5 Z"/></g>
<g><path style="opacity:1" fill="#c9c2b7" d="M 509.5,80.5 C 508.791,81.404 507.791,81.7373 506.5,81.5C 506.5,82.5 506.5,83.5 506.5,84.5C 510.042,84.1872 513.375,84.5206 516.5,85.5C 512.5,85.5 508.5,85.5 504.5,85.5C 503.833,81.5 505.5,79.8333 509.5,80.5 Z"/></g>
<g><path style="opacity:1" fill="#dad4c7" d="M 781.5,81.5 C 781.59,84.1522 780.924,86.4855 779.5,88.5C 779.41,85.8478 780.076,83.5145 781.5,81.5 Z"/></g>
<g><path style="opacity:1" fill="#948974" d="M 276.5,79.5 C 277.833,79.5 279.167,79.5 280.5,79.5C 280.5,80.8333 280.5,82.1667 280.5,83.5C 280.5,84.8333 280.5,86.1667 280.5,87.5C 278.693,96.6016 277.693,105.935 277.5,115.5C 276.57,119.4 276.237,123.4 276.5,127.5C 274.959,137.302 273.959,147.302 273.5,157.5C 272.662,168.868 271.662,180.201 270.5,191.5C 269.508,199.32 268.841,207.32 268.5,215.5C 268.503,218.355 268.836,221.022 269.5,223.5C 273.696,229.803 279.696,232.469 287.5,231.5C 287.5,232.833 287.5,234.167 287.5,235.5C 267.156,235.833 246.822,235.5 226.5,234.5C 226.833,233.833 227.167,233.167 227.5,232.5C 239.223,233.087 246.223,227.754 248.5,216.5C 249.268,215.737 249.768,214.737 250,213.5C 250.628,206.171 251.128,198.837 251.5,191.5C 251.5,189.5 251.5,187.5 251.5,185.5C 236.83,185.333 222.163,185.5 207.5,186C 199.141,195.884 191.641,206.384 185,217.5C 183.215,226.571 187.048,231.571 196.5,232.5C 196.167,233.167 195.833,233.833 195.5,234.5C 180.515,235.499 165.515,235.833 150.5,235.5C 150.5,234.167 150.5,232.833 150.5,231.5C 156.478,231.507 161.811,229.673 166.5,226C 169.883,222.072 173.383,218.239 177,214.5C 186.697,201.316 196.53,188.316 206.5,175.5C 207.708,174.766 209.041,174.433 210.5,174.5C 210.312,172.897 210.812,171.563 212,170.5C 213.438,171.9 214.271,173.567 214.5,175.5C 220.463,176.83 226.796,177.496 233.5,177.5C 240.009,177.5 246.342,177.166 252.5,176.5C 252.898,170.661 253.565,164.994 254.5,159.5C 256.152,150.379 257.152,141.046 257.5,131.5C 257.5,129.833 257.5,128.167 257.5,126.5C 258.404,125.791 258.737,124.791 258.5,123.5C 259.468,121.393 259.802,119.059 259.5,116.5C 258.167,116.5 256.833,116.5 255.5,116.5C 255.5,113.833 255.5,111.167 255.5,108.5C 262.145,98.5301 269.145,88.8635 276.5,79.5 Z"/></g>
<g><path style="opacity:1" fill="#dad5cd" d="M 366.5,87.5 C 366.41,91.2142 365.41,94.5475 363.5,97.5C 363.723,93.8379 364.723,90.5046 366.5,87.5 Z"/></g>
<g><path style="opacity:1" fill="#dcd6cd" d="M 540.5,87.5 C 540.41,91.2142 539.41,94.5475 537.5,97.5C 537.723,93.8379 538.723,90.5046 540.5,87.5 Z"/></g>
<g><path style="opacity:1" fill="#ddd6cd" d="M 715.5,87.5 C 715.59,90.1522 714.924,92.4855 713.5,94.5C 713.41,91.8478 714.076,89.5145 715.5,87.5 Z"/></g>
<g><path style="opacity:1" fill="#d8d4ca" d="M 779.5,88.5 C 779.59,91.1522 778.924,93.4855 777.5,95.5C 777.41,92.8478 778.076,90.5145 779.5,88.5 Z"/></g>
<g><path style="opacity:1" fill="#e2ddd4" d="M 959.5,85.5 C 959.289,90.5998 957.955,95.2665 955.5,99.5C 956.231,94.5615 957.565,89.8949 959.5,85.5 Z"/></g>
<g><path style="opacity:1" fill="#aea79a" d="M 939.5,89.5 C 941.046,94.1187 940.38,98.4521 937.5,102.5C 938.908,98.3141 939.575,93.9808 939.5,89.5 Z"/></g>
<g><path style="opacity:1" fill="#dbd7cb" d="M 777.5,95.5 C 777.435,98.4282 776.768,101.095 775.5,103.5C 775.294,100.505 775.96,97.8383 777.5,95.5 Z"/></g>
<g><path style="opacity:1" fill="#e5e1d7" d="M 280.5,87.5 C 280.987,97.1402 279.987,106.474 277.5,115.5C 277.693,105.935 278.693,96.6016 280.5,87.5 Z"/></g>
<g><path style="opacity:1" fill="#dad5cb" d="M 955.5,99.5 C 955.277,103.162 954.277,106.495 952.5,109.5C 952.723,105.838 953.723,102.505 955.5,99.5 Z"/></g>
<g><path style="opacity:1" fill="#b5afa3" d="M 758.5,103.5 C 757.813,109.552 756.146,115.218 753.5,120.5C 754.592,114.567 756.259,108.9 758.5,103.5 Z"/></g>
<g><path style="opacity:1" fill="#b0a99b" d="M 937.5,103.5 C 937.231,108.264 935.898,112.597 933.5,116.5C 934.057,111.835 935.39,107.502 937.5,103.5 Z"/></g>
<g><path style="opacity:1" fill="#b9b3a8" d="M 693.5,105.5 C 693.59,108.152 692.924,110.485 691.5,112.5C 691.41,109.848 692.076,107.515 693.5,105.5 Z"/></g>
<g><path style="opacity:1" fill="#d9d4cb" d="M 952.5,109.5 C 952.59,112.152 951.924,114.485 950.5,116.5C 950.41,113.848 951.076,111.515 952.5,109.5 Z"/></g>
<g><path style="opacity:1" fill="#dbd6ca" d="M 533.5,111.5 C 533.277,115.162 532.277,118.495 530.5,121.5C 530.723,117.838 531.723,114.505 533.5,111.5 Z"/></g>
<g><path style="opacity:1" fill="#b7b1a6" d="M 691.5,112.5 C 691.59,115.152 690.924,117.485 689.5,119.5C 689.41,116.848 690.076,114.515 691.5,112.5 Z"/></g>
<g><path style="opacity:1" fill="#d9d3c8" d="M 707.5,115.5 C 707.277,119.162 706.277,122.495 704.5,125.5C 704.723,121.838 705.723,118.505 707.5,115.5 Z"/></g>
<g><path style="opacity:1" fill="#ddd7cc" d="M 771.5,116.5 C 771.59,119.152 770.924,121.485 769.5,123.5C 769.41,120.848 770.076,118.515 771.5,116.5 Z"/></g>
<g><path style="opacity:1" fill="#dbd4cb" d="M 950.5,116.5 C 950.59,119.152 949.924,121.485 948.5,123.5C 948.41,120.848 949.076,118.515 950.5,116.5 Z"/></g>
<g><path style="opacity:1" fill="#fcfcfa" d="M 256.5,119.5 C 257.468,121.607 257.802,123.941 257.5,126.5C 257.5,128.167 257.5,129.833 257.5,131.5C 255.55,140.588 254.55,149.922 254.5,159.5C 253.565,164.994 252.898,170.661 252.5,176.5C 239.989,176.829 227.655,176.495 215.5,175.5C 228.69,156.44 242.357,137.774 256.5,119.5 Z"/></g>
<g><path style="opacity:1" fill="#b4ada0" d="M 340.5,118.5 C 340.277,122.162 339.277,125.495 337.5,128.5C 337.723,124.838 338.723,121.505 340.5,118.5 Z"/></g>
<g><path style="opacity:1" fill="#b6ad9f" d="M 689.5,119.5 C 689.435,122.428 688.768,125.095 687.5,127.5C 687.294,124.505 687.96,121.838 689.5,119.5 Z"/></g>
<g><path style="opacity:1" fill="#d5d0c7" d="M 530.5,121.5 C 530.277,125.162 529.277,128.495 527.5,131.5C 527.723,127.838 528.723,124.505 530.5,121.5 Z"/></g>
<g><path style="opacity:1" fill="#bcb6a9" d="M 258.5,123.5 C 258.737,124.791 258.404,125.791 257.5,126.5C 257.802,123.941 257.468,121.607 256.5,119.5C 256.369,118.624 256.702,117.957 257.5,117.5C 258.466,119.396 258.799,121.396 258.5,123.5 Z"/></g>
<g><path style="opacity:1" fill="#a29989" d="M 933.5,116.5 C 932.414,121.056 932.414,125.556 933.5,130C 932.12,131.324 931.786,132.657 932.5,134C 931.773,135.399 931.273,136.899 931,138.5C 929.853,137.542 928.853,137.875 928,139.5C 926.907,142.309 925.74,144.976 924.5,147.5C 926.925,136.902 929.925,126.568 933.5,116.5 Z"/></g>
<g><path style="opacity:1" fill="#dcd7cd" d="M 769.5,123.5 C 769.08,128.529 767.746,133.195 765.5,137.5C 766.231,132.562 767.565,127.895 769.5,123.5 Z"/></g>
<g><path style="opacity:1" fill="#dcd4c9" d="M 703.5,129.5 C 703.277,133.162 702.277,136.495 700.5,139.5C 700.723,135.838 701.723,132.505 703.5,129.5 Z"/></g>
<g><path style="opacity:1" fill="#c9c4b9" d="M 642.5,138.5 C 640.257,137.188 637.59,136.522 634.5,136.5C 631.231,136.604 628.231,137.27 625.5,138.5C 625.5,137.5 625.5,136.5 625.5,135.5C 631.5,135.5 637.5,135.5 643.5,135.5C 643.737,136.791 643.404,137.791 642.5,138.5 Z"/></g>
<g><path style="opacity:1" fill="#948873" d="M 959.5,75.5 C 960.497,75.4701 961.164,75.9701 961.5,77C 960.313,79.7236 959.647,82.5569 959.5,85.5C 957.565,89.8949 956.231,94.5615 955.5,99.5C 953.723,102.505 952.723,105.838 952.5,109.5C 951.076,111.515 950.41,113.848 950.5,116.5C 949.076,118.515 948.41,120.848 948.5,123.5C 946.592,127.903 945.259,132.57 944.5,137.5C 942.723,140.505 941.723,143.838 941.5,147.5C 940.076,149.515 939.41,151.848 939.5,154.5C 937.565,158.895 936.231,163.562 935.5,168.5C 929.208,185.167 930.541,186.167 939.5,171.5C 947.496,158.663 957.496,147.497 969.5,138C 975.278,133.99 981.612,132.656 988.5,134C 991.106,134.792 993.106,136.292 994.5,138.5C 996.8,144.315 997.133,150.315 995.5,156.5C 995.5,157.5 995.5,158.5 995.5,159.5C 993.723,162.505 992.723,165.838 992.5,169.5C 991.076,171.515 990.41,173.848 990.5,176.5C 988.874,179.246 988.207,182.246 988.5,185.5C 986.723,188.505 985.723,191.838 985.5,195.5C 984.076,197.515 983.41,199.848 983.5,202.5C 982.076,204.515 981.41,206.848 981.5,209.5C 979.601,213.197 978.268,217.197 977.5,221.5C 978.878,225.85 981.211,226.517 984.5,223.5C 989.11,219.634 993.276,215.3 997,210.5C 999.188,211.059 999.854,212.393 999,214.5C 993.833,220.333 988.667,226.167 983.5,232C 980.757,234.038 977.757,235.538 974.5,236.5C 964.008,236.852 960.008,232.019 962.5,222C 964.276,220.294 965.942,218.461 967.5,216.5C 966.261,214.689 965.594,212.689 965.5,210.5C 966.967,206.968 967.634,203.302 967.5,199.5C 968.768,197.095 969.435,194.428 969.5,191.5C 970.924,189.485 971.59,187.152 971.5,184.5C 972.924,182.485 973.59,180.152 973.5,177.5C 975.654,169.216 977.654,160.882 979.5,152.5C 977.988,146.402 974.322,144.902 968.5,148C 961.04,153.126 954.54,159.293 949,166.5C 942.667,176.5 936.333,186.5 930,196.5C 927.928,199.971 926.428,203.638 925.5,207.5C 922.194,214.085 919.86,221.085 918.5,228.5C 917.076,230.515 916.41,232.848 916.5,235.5C 910.833,235.5 905.167,235.5 899.5,235.5C 899.565,232.572 900.232,229.905 901.5,227.5C 903.277,224.495 904.277,221.162 904.5,217.5C 905.924,215.485 906.59,213.152 906.5,210.5C 907.924,208.485 908.59,206.152 908.5,203.5C 911.266,193.004 914.266,182.671 917.5,172.5C 920.962,166.096 922.962,159.096 923.5,151.5C 923.232,149.901 923.566,148.568 924.5,147.5C 925.74,144.976 926.907,142.309 928,139.5C 928.853,137.875 929.853,137.542 931,138.5C 931.273,136.899 931.773,135.399 932.5,134C 931.786,132.657 932.12,131.324 933.5,130C 932.414,125.556 932.414,121.056 933.5,116.5C 935.898,112.597 937.231,108.264 937.5,103.5C 937.5,103.167 937.5,102.833 937.5,102.5C 940.38,98.4521 941.046,94.1187 939.5,89.5C 938.71,88.2058 937.71,87.0391 936.5,86C 932.179,85.501 927.846,85.3343 923.5,85.5C 923.227,83.549 923.893,82.049 925.5,81C 936.829,79.0562 948.163,77.2228 959.5,75.5 Z"/></g>
<g><path style="opacity:1" fill="#9b9281" d="M 869.5,138.5 C 865.687,137.84 862.021,136.674 858.5,135C 853.113,134.216 847.78,134.382 842.5,135.5C 841.289,136.274 841.289,137.107 842.5,138C 850.549,138.505 858.549,139.339 866.5,140.5C 865.25,142.968 865.417,145.301 867,147.5C 869.139,159.564 868.805,171.564 866,183.5C 865.583,184.756 864.75,185.423 863.5,185.5C 866.103,174.645 866.937,163.645 866,152.5C 860.941,140.575 852.108,136.742 839.5,141C 836.688,142.328 834.022,143.828 831.5,145.5C 831.5,144.5 831.5,143.5 831.5,142.5C 834.462,142.883 835.462,141.883 834.5,139.5C 832.273,138.947 829.939,138.947 827.5,139.5C 837.37,133.88 848.036,132.047 859.5,134C 863.229,134.844 866.563,136.344 869.5,138.5 Z"/></g>
<g><path style="opacity:1" fill="#b6b1a6" d="M 335.5,135.5 C 335.277,139.162 334.277,142.495 332.5,145.5C 332.723,141.838 333.723,138.505 335.5,135.5 Z"/></g>
<g><path style="opacity:1" fill="#fdfdfc" d="M 501.5,161.5 C 500.41,166.118 499.077,170.785 497.5,175.5C 490.144,192.365 479.811,207.198 466.5,220C 461.036,224.432 455.036,225.432 448.5,223C 446.536,221.549 445.203,219.716 444.5,217.5C 443.606,208.862 443.606,200.195 444.5,191.5C 449.436,172.796 459.103,156.963 473.5,144C 480.828,138.94 488.494,138.273 496.5,142C 498.359,143.558 499.859,145.391 501,147.5C 501.499,152.155 501.666,156.821 501.5,161.5 Z"/></g>
<g><path style="opacity:1" fill="#dbd6cd" d="M 944.5,137.5 C 944.277,141.162 943.277,144.495 941.5,147.5C 941.723,143.838 942.723,140.505 944.5,137.5 Z"/></g>
<g><path style="opacity:1" fill="#e0dad2" d="M 276.5,127.5 C 276.666,133.509 276.499,139.509 276,145.5C 275.811,149.767 274.977,153.767 273.5,157.5C 273.959,147.302 274.959,137.302 276.5,127.5 Z"/></g>
<g><path style="opacity:1" fill="#fdfdfc" d="M 392.5,159.5 C 392.499,167.517 392.166,175.517 391.5,183.5C 387.619,198.299 380.619,211.466 370.5,223C 357.147,233.835 342.814,235.335 327.5,227.5C 327.167,226.833 326.833,226.167 326.5,225.5C 327.6,219.547 329.266,213.881 331.5,208.5C 332.924,206.485 333.59,204.152 333.5,201.5C 335.277,198.495 336.277,195.162 336.5,191.5C 336.41,188.848 337.076,186.515 338.5,184.5C 339.924,182.485 340.59,180.152 340.5,177.5C 343.816,162.011 352.816,151.178 367.5,145C 380.732,141.78 389.066,146.614 392.5,159.5 Z"/></g>
<g><path style="opacity:1" fill="#b7b1a7" d="M 332.5,145.5 C 332.59,148.152 331.924,150.485 330.5,152.5C 330.41,149.848 331.076,147.515 332.5,145.5 Z"/></g>
<g><path style="opacity:1" fill="#dcd4ca" d="M 523.5,145.5 C 523.59,148.152 522.924,150.485 521.5,152.5C 521.41,149.848 522.076,147.515 523.5,145.5 Z"/></g>
<g><path style="opacity:1" fill="#afa697" d="M 257.5,131.5 C 257.152,141.046 256.152,150.379 254.5,159.5C 254.55,149.922 255.55,140.588 257.5,131.5 Z"/></g>
<g><path style="opacity:1" fill="#d9d4ca" d="M 941.5,147.5 C 941.59,150.152 940.924,152.485 939.5,154.5C 939.41,151.848 940.076,149.515 941.5,147.5 Z"/></g>
<g><path style="opacity:1" fill="#a19989" d="M 563.5,147.5 C 564.201,150.563 564.868,153.73 565.5,157C 564.333,158.167 563.167,159.333 562,160.5C 560.766,164.715 559.266,168.715 557.5,172.5C 559.909,164.27 561.909,155.937 563.5,147.5 Z"/></g>
<g><path style="opacity:1" fill="#948873" d="M 716.5,75.5 C 717.376,75.3691 718.043,75.7025 718.5,76.5C 716.883,80.014 715.883,83.6807 715.5,87.5C 714.076,89.5145 713.41,91.8478 713.5,94.5C 710.727,101.255 708.727,108.255 707.5,115.5C 705.723,118.505 704.723,121.838 704.5,125.5C 703.566,126.568 703.232,127.901 703.5,129.5C 701.723,132.505 700.723,135.838 700.5,139.5C 697.253,148.585 694.586,157.919 692.5,167.5C 689.742,174.183 687.742,181.183 686.5,188.5C 685.076,190.515 684.41,192.848 684.5,195.5C 682.723,198.505 681.723,201.838 681.5,205.5C 680.566,206.568 680.232,207.901 680.5,209.5C 679.076,211.515 678.41,213.848 678.5,216.5C 676.006,223.836 678.339,226.336 685.5,224C 690.057,219.78 694.224,215.28 698,210.5C 699.434,210.93 700.601,211.764 701.5,213C 694.353,223.815 685.02,232.148 673.5,238C 664.147,239.81 659.48,235.977 659.5,226.5C 660.051,220.543 661.384,214.876 663.5,209.5C 666.207,205.344 667.54,200.678 667.5,195.5C 669.277,192.495 670.277,189.162 670.5,185.5C 674.606,178.175 676.939,170.175 677.5,161.5C 679.923,149.79 683.256,138.457 687.5,127.5C 688.768,125.095 689.435,122.428 689.5,119.5C 690.924,117.485 691.59,115.152 691.5,112.5C 692.924,110.485 693.59,108.152 693.5,105.5C 695.306,99.6167 696.139,93.6167 696,87.5C 691.227,84.3405 686.06,83.6739 680.5,85.5C 680.5,83.8333 680.5,82.1667 680.5,80.5C 692.483,78.8427 704.483,77.1761 716.5,75.5 Z"/></g>
<g><path style="opacity:1" fill="#948873" d="M 869.5,138.5 C 882.711,147.262 887.877,159.595 885,175.5C 880.017,207.151 862.184,227.651 831.5,237C 815.064,241.194 801.564,236.694 791,223.5C 788.985,220.469 787.819,217.136 787.5,213.5C 786.287,205.173 786.287,196.84 787.5,188.5C 793.518,166.097 806.851,149.763 827.5,139.5C 829.939,138.947 832.273,138.947 834.5,139.5C 835.462,141.883 834.462,142.883 831.5,142.5C 831.5,143.5 831.5,144.5 831.5,145.5C 818.989,158.52 810.655,173.853 806.5,191.5C 804.954,196.233 804.287,201.233 804.5,206.5C 804.501,210.349 804.835,214.016 805.5,217.5C 806.344,224.852 810.344,229.685 817.5,232C 828.893,233.555 838.06,229.722 845,220.5C 853.293,209.911 859.46,198.245 863.5,185.5C 864.75,185.423 865.583,184.756 866,183.5C 868.805,171.564 869.139,159.564 867,147.5C 865.417,145.301 865.25,142.968 866.5,140.5C 858.549,139.339 850.549,138.505 842.5,138C 841.289,137.107 841.289,136.274 842.5,135.5C 847.78,134.382 853.113,134.216 858.5,135C 862.021,136.674 865.687,137.84 869.5,138.5 Z"/></g>
<g><path style="opacity:1" fill="#fefdfd" d="M 863.5,185.5 C 859.46,198.245 853.293,209.911 845,220.5C 838.06,229.722 828.893,233.555 817.5,232C 810.344,229.685 806.344,224.852 805.5,217.5C 805.464,208.815 805.797,200.149 806.5,191.5C 810.655,173.853 818.989,158.52 831.5,145.5C 834.022,143.828 836.688,142.328 839.5,141C 852.108,136.742 860.941,140.575 866,152.5C 866.937,163.645 866.103,174.645 863.5,185.5 Z"/></g>
<g><path style="opacity:1" fill="#e7e2da" d="M 994.5,138.5 C 995.75,138.577 996.583,139.244 997,140.5C 997.167,143.167 997.333,145.833 997.5,148.5C 997.478,151.59 996.812,154.257 995.5,156.5C 997.133,150.315 996.8,144.315 994.5,138.5 Z"/></g>
<g><path style="opacity:1" fill="#dbd5c8" d="M 760.5,154.5 C 760.829,157.228 760.163,159.562 758.5,161.5C 758.41,158.848 759.076,156.515 760.5,154.5 Z"/></g>
<g><path style="opacity:1" fill="#978c79" d="M 255.5,108.5 C 255.5,111.167 255.5,113.833 255.5,116.5C 256.833,116.5 258.167,116.5 259.5,116.5C 259.802,119.059 259.468,121.393 258.5,123.5C 258.799,121.396 258.466,119.396 257.5,117.5C 256.702,117.957 256.369,118.624 256.5,119.5C 242.357,137.774 228.69,156.44 215.5,175.5C 215.167,175.5 214.833,175.5 214.5,175.5C 214.271,173.567 213.438,171.9 212,170.5C 210.812,171.563 210.312,172.897 210.5,174.5C 209.041,174.433 207.708,174.766 206.5,175.5C 222.454,152.881 238.787,130.547 255.5,108.5 Z"/></g>
<g><path style="opacity:1" fill="#dbd5cc" d="M 995.5,159.5 C 995.277,163.162 994.277,166.495 992.5,169.5C 992.723,165.838 993.723,162.505 995.5,159.5 Z"/></g>
<g><path style="opacity:1" fill="#ece8e0" d="M 519.5,159.5 C 520.017,165.937 518.35,171.603 514.5,176.5C 515.409,170.513 517.076,164.847 519.5,159.5 Z"/></g>
<g><path style="opacity:1" fill="#a8a092" d="M 923.5,151.5 C 922.962,159.096 920.962,166.096 917.5,172.5C 918.742,165.183 920.742,158.183 923.5,151.5 Z"/></g>
<g><path style="opacity:1" fill="#b1aa9c" d="M 501.5,161.5 C 502.26,166.906 500.927,171.573 497.5,175.5C 499.077,170.785 500.41,166.118 501.5,161.5 Z"/></g>
<g><path style="opacity:1" fill="#e0dcd3" d="M 634.5,167.5 C 634.346,172.289 633.013,176.622 630.5,180.5C 631.057,175.835 632.39,171.502 634.5,167.5 Z"/></g>
<g><path style="opacity:1" fill="#ece7df" d="M 935.5,168.5 C 935.343,169.873 935.51,171.207 936,172.5C 937.011,171.663 938.178,171.33 939.5,171.5C 930.541,186.167 929.208,185.167 935.5,168.5 Z"/></g>
<g><path style="opacity:1" fill="#d9d4cb" d="M 992.5,169.5 C 992.59,172.152 991.924,174.485 990.5,176.5C 990.41,173.848 991.076,171.515 992.5,169.5 Z"/></g>
<g><path style="opacity:1" fill="#a59e8f" d="M 677.5,161.5 C 676.939,170.175 674.606,178.175 670.5,185.5C 672.056,177.176 674.39,169.176 677.5,161.5 Z"/></g>
<g><path style="opacity:1" fill="#beb7ab" d="M 214.5,175.5 C 214.833,175.5 215.167,175.5 215.5,175.5C 227.655,176.495 239.989,176.829 252.5,176.5C 246.342,177.166 240.009,177.5 233.5,177.5C 226.796,177.496 220.463,176.83 214.5,175.5 Z"/></g>
<g><path style="opacity:1" fill="#ada598" d="M 392.5,159.5 C 393.165,162.649 393.498,165.982 393.5,169.5C 393.7,174.437 393.033,179.104 391.5,183.5C 392.166,175.517 392.499,167.517 392.5,159.5 Z"/></g>
<g><path style="opacity:1" fill="#dcd8cc" d="M 514.5,176.5 C 514.59,179.152 513.924,181.485 512.5,183.5C 512.41,180.848 513.076,178.515 514.5,176.5 Z"/></g>
<g><path style="opacity:1" fill="#dad5cc" d="M 340.5,177.5 C 340.59,180.152 339.924,182.485 338.5,184.5C 338.41,181.848 339.076,179.515 340.5,177.5 Z"/></g>
<g><path style="opacity:1" fill="#b8b1a5" d="M 973.5,177.5 C 973.59,180.152 972.924,182.485 971.5,184.5C 971.41,181.848 972.076,179.515 973.5,177.5 Z"/></g>
<g><path style="opacity:1" fill="#eae6dd" d="M 692.5,167.5 C 692.804,175.324 690.804,182.324 686.5,188.5C 687.742,181.183 689.742,174.183 692.5,167.5 Z"/></g>
<g><path style="opacity:1" fill="#d9d3c9" d="M 630.5,180.5 C 630.59,183.152 629.924,185.485 628.5,187.5C 628.41,184.848 629.076,182.515 630.5,180.5 Z"/></g>
<g><path style="opacity:1" fill="#b6afa3" d="M 554.5,183.5 C 554.554,186.992 553.554,189.992 551.5,192.5C 552.054,189.254 553.054,186.254 554.5,183.5 Z"/></g>
<g><path style="opacity:1" fill="#b7b0a3" d="M 971.5,184.5 C 971.59,187.152 970.924,189.485 969.5,191.5C 969.41,188.848 970.076,186.515 971.5,184.5 Z"/></g>
<g><path style="opacity:1" fill="#b7b0a3" d="M 670.5,185.5 C 670.277,189.162 669.277,192.495 667.5,195.5C 667.723,191.838 668.723,188.505 670.5,185.5 Z"/></g>
<g><path style="opacity:1" fill="#dad5cd" d="M 988.5,185.5 C 988.277,189.162 987.277,192.495 985.5,195.5C 985.723,191.838 986.723,188.505 988.5,185.5 Z"/></g>
<g><path style="opacity:1" fill="#948974" d="M 578.5,161.5 C 577.076,163.515 576.41,165.848 576.5,168.5C 575.076,170.515 574.41,172.848 574.5,175.5C 572.723,178.505 571.723,181.838 571.5,185.5C 569.877,189.978 568.544,194.644 567.5,199.5C 566.076,201.515 565.41,203.848 565.5,206.5C 562.89,211.444 562.057,216.778 563,222.5C 565.357,224.646 567.857,224.979 570.5,223.5C 574.187,222.824 577.52,221.324 580.5,219C 595.619,203.261 607.619,185.428 616.5,165.5C 618.897,162.691 620.23,159.358 620.5,155.5C 622.61,151.498 623.943,147.165 624.5,142.5C 624.833,141.167 625.167,139.833 625.5,138.5C 628.231,137.27 631.231,136.604 634.5,136.5C 637.59,136.522 640.257,137.188 642.5,138.5C 639.368,148.025 636.702,157.692 634.5,167.5C 632.39,171.502 631.057,175.835 630.5,180.5C 629.076,182.515 628.41,184.848 628.5,187.5C 625.565,195.227 623.231,203.227 621.5,211.5C 619.442,216.072 619.109,220.738 620.5,225.5C 622.089,226.621 623.756,226.454 625.5,225C 629.642,221.038 633.308,216.704 636.5,212C 638.319,211.217 639.652,211.717 640.5,213.5C 634.07,226.275 624.07,234.608 610.5,238.5C 607.372,238.439 605.039,237.106 603.5,234.5C 602.709,228.873 602.709,223.206 603.5,217.5C 604.216,212.633 605.549,207.967 607.5,203.5C 609.943,198.5 611.61,193.166 612.5,187.5C 612.225,185.158 611.392,185.158 610,187.5C 607.909,190.74 606.076,194.074 604.5,197.5C 596.926,208.758 588.26,219.258 578.5,229C 572.318,234.287 565.151,237.454 557,238.5C 546.15,235.735 542.15,228.735 545,217.5C 546.723,209.054 548.889,200.721 551.5,192.5C 553.554,189.992 554.554,186.992 554.5,183.5C 554.742,179.521 555.742,175.854 557.5,172.5C 559.266,168.715 560.766,164.715 562,160.5C 563.167,159.333 564.333,158.167 565.5,157C 564.868,153.73 564.201,150.563 563.5,147.5C 561.037,145.059 558.371,144.893 555.5,147C 551.928,150.815 548.595,154.815 545.5,159C 542.66,159.488 541.494,158.321 542,155.5C 548.036,145.9 556.203,138.733 566.5,134C 578.723,131.556 583.556,136.389 581,148.5C 580.004,152.816 579.17,157.149 578.5,161.5 Z"/></g>
<g><path style="opacity:1" fill="#ada596" d="M 612.5,187.5 C 611.61,193.166 609.943,198.5 607.5,203.5C 607.5,202.167 607.5,200.833 607.5,199.5C 609.167,195.5 610.833,191.5 612.5,187.5 Z"/></g>
<g><path style="opacity:1" fill="#d7d2c9" d="M 574.5,175.5 C 574.277,179.162 573.277,182.495 571.5,185.5C 571.723,181.838 572.723,178.505 574.5,175.5 Z"/></g>
<g><path style="opacity:1" fill="#dad5ca" d="M 576.5,168.5 C 576.59,171.152 575.924,173.485 574.5,175.5C 574.41,172.848 575.076,170.515 576.5,168.5 Z"/></g>
<g><path style="opacity:1" fill="#d9d3c9" d="M 578.5,161.5 C 578.59,164.152 577.924,166.485 576.5,168.5C 576.41,165.848 577.076,163.515 578.5,161.5 Z"/></g>
<g><path style="opacity:1" fill="#b6afa3" d="M 620.5,155.5 C 620.23,159.358 618.897,162.691 616.5,165.5C 617.267,161.851 618.6,158.518 620.5,155.5 Z"/></g>
<g><path style="opacity:1" fill="#b8b1a3" d="M 624.5,142.5 C 623.943,147.165 622.61,151.498 620.5,155.5C 621.057,150.835 622.39,146.502 624.5,142.5 Z"/></g>
<g><path style="opacity:1" fill="#f1ede5" d="M 612.5,187.5 C 610.833,191.5 609.167,195.5 607.5,199.5C 608.044,195.36 607.044,194.693 604.5,197.5C 606.076,194.074 607.909,190.74 610,187.5C 611.392,185.158 612.225,185.158 612.5,187.5 Z"/></g>
<g><path style="opacity:1" fill="#b4ada2" d="M 969.5,191.5 C 969.435,194.428 968.768,197.095 967.5,199.5C 967.294,196.505 967.96,193.838 969.5,191.5 Z"/></g>
<g><path style="opacity:1" fill="#dad6c9" d="M 509.5,193.5 C 509.59,196.152 508.924,198.485 507.5,200.5C 507.41,197.848 508.076,195.515 509.5,193.5 Z"/></g>
<g><path style="opacity:1" fill="#b3aca1" d="M 732.5,193.5 C 732.59,196.152 731.924,198.485 730.5,200.5C 730.41,197.848 731.076,195.515 732.5,193.5 Z"/></g>
<g><path style="opacity:1" fill="#948873" d="M 781.5,81.5 C 780.076,83.5145 779.41,85.8478 779.5,88.5C 778.076,90.5145 777.41,92.8478 777.5,95.5C 775.96,97.8383 775.294,100.505 775.5,103.5C 773.394,107.491 772.061,111.824 771.5,116.5C 770.076,118.515 769.41,120.848 769.5,123.5C 767.565,127.895 766.231,132.562 765.5,137.5C 763.261,142.894 761.594,148.561 760.5,154.5C 759.076,156.515 758.41,158.848 758.5,161.5C 754.721,172.938 751.387,184.605 748.5,196.5C 747.076,198.515 746.41,200.848 746.5,203.5C 745.21,206.642 744.21,209.975 743.5,213.5C 742.391,215.586 741.724,217.92 741.5,220.5C 741.34,222.355 742.007,223.688 743.5,224.5C 745.846,225.683 748.179,225.35 750.5,223.5C 754.845,219.153 758.845,214.486 762.5,209.5C 764.046,210.212 765.046,211.378 765.5,213C 759.609,222.454 751.943,230.12 742.5,236C 735.26,240.297 729.26,239.131 724.5,232.5C 725.581,224.212 726.914,215.879 728.5,207.5C 728.394,204.921 729.061,202.588 730.5,200.5C 731.924,198.485 732.59,196.152 732.5,193.5C 739.05,168.956 746.05,144.623 753.5,120.5C 756.146,115.218 757.813,109.552 758.5,103.5C 758.964,99.1466 759.964,94.98 761.5,91C 761.138,87.9693 759.471,85.9693 756.5,85C 752.463,84.3933 748.463,84.56 744.5,85.5C 744.5,83.8333 744.5,82.1667 744.5,80.5C 757.21,79.0908 769.876,77.4241 782.5,75.5C 782.167,77.5 781.833,79.5 781.5,81.5 Z"/></g>
<g><path style="opacity:1" fill="#d9d3c8" d="M 336.5,191.5 C 336.277,195.162 335.277,198.495 333.5,201.5C 333.723,197.838 334.723,194.505 336.5,191.5 Z"/></g>
<g><path style="opacity:1" fill="#dad4ca" d="M 684.5,195.5 C 684.277,199.162 683.277,202.495 681.5,205.5C 681.723,201.838 682.723,198.505 684.5,195.5 Z"/></g>
<g><path style="opacity:1" fill="#dbd5cb" d="M 985.5,195.5 C 985.59,198.152 984.924,200.485 983.5,202.5C 983.41,199.848 984.076,197.515 985.5,195.5 Z"/></g>
<g><path style="opacity:1" fill="#dcd7cd" d="M 748.5,196.5 C 748.59,199.152 747.924,201.485 746.5,203.5C 746.41,200.848 747.076,198.515 748.5,196.5 Z"/></g>
<g><path style="opacity:1" fill="#eee8e0" d="M 444.5,191.5 C 443.606,200.195 443.606,208.862 444.5,217.5C 443.778,217.082 443.278,216.416 443,215.5C 442.833,212.333 442.667,209.167 442.5,206C 442.344,200.91 443.01,196.077 444.5,191.5 Z"/></g>
<g><path style="opacity:1" fill="#dcd5cd" d="M 567.5,199.5 C 567.59,202.152 566.924,204.485 565.5,206.5C 565.41,203.848 566.076,201.515 567.5,199.5 Z"/></g>
<g><path style="opacity:1" fill="#e7e1d9" d="M 806.5,191.5 C 805.797,200.149 805.464,208.815 805.5,217.5C 804.835,214.016 804.501,210.349 804.5,206.5C 804.287,201.233 804.954,196.233 806.5,191.5 Z"/></g>
<g><path style="opacity:1" fill="#d7d2ca" d="M 333.5,201.5 C 333.59,204.152 332.924,206.485 331.5,208.5C 331.41,205.848 332.076,203.515 333.5,201.5 Z"/></g>
<g><path style="opacity:1" fill="#aea69a" d="M 667.5,195.5 C 667.54,200.678 666.207,205.344 663.5,209.5C 664.259,204.57 665.592,199.903 667.5,195.5 Z"/></g>
<g><path style="opacity:1" fill="#dcd6cd" d="M 983.5,202.5 C 983.59,205.152 982.924,207.485 981.5,209.5C 981.41,206.848 982.076,204.515 983.5,202.5 Z"/></g>
<g><path style="opacity:1" fill="#b6afa2" d="M 251.5,191.5 C 251.128,198.837 250.628,206.171 250,213.5C 249.768,214.737 249.268,215.737 248.5,216.5C 249.047,207.976 250.047,199.643 251.5,191.5 Z"/></g>
<g><path style="opacity:1" fill="#a8a193" d="M 429.5,183.5 C 427.434,189.655 425.934,195.988 425,202.5C 424.132,210.275 424.632,217.942 426.5,225.5C 425.073,223.852 424.24,221.852 424,219.5C 422.744,208.604 423.744,197.938 427,187.5C 427.608,185.934 428.442,184.6 429.5,183.5 Z"/></g>
<g><path style="opacity:1" fill="#ada699" d="M 787.5,188.5 C 786.287,196.84 786.287,205.173 787.5,213.5C 785.97,210.305 785.304,206.805 785.5,203C 785.486,197.933 786.153,193.1 787.5,188.5 Z"/></g>
<g><path style="opacity:1" fill="#b5aea4" d="M 908.5,203.5 C 908.59,206.152 907.924,208.485 906.5,210.5C 906.41,207.848 907.076,205.515 908.5,203.5 Z"/></g>
<g><path style="opacity:1" fill="#e3ded5" d="M 925.5,207.5 C 923.751,214.747 921.418,221.747 918.5,228.5C 919.86,221.085 922.194,214.085 925.5,207.5 Z"/></g>
<g><path style="opacity:1" fill="#9c9382" d="M 967.5,199.5 C 967.634,203.302 966.967,206.968 965.5,210.5C 965.594,212.689 966.261,214.689 967.5,216.5C 965.942,218.461 964.276,220.294 962.5,222C 960.008,232.019 964.008,236.852 974.5,236.5C 969.246,239.681 964.746,238.681 961,233.5C 960.04,221.469 962.207,210.136 967.5,199.5 Z"/></g>
<g><path style="opacity:1" fill="#ddd8cc" d="M 680.5,209.5 C 680.59,212.152 679.924,214.485 678.5,216.5C 678.41,213.848 679.076,211.515 680.5,209.5 Z"/></g>
<g><path style="opacity:1" fill="#dedad1" d="M 270.5,191.5 C 270.314,202.172 269.981,212.839 269.5,223.5C 268.836,221.022 268.503,218.355 268.5,215.5C 268.841,207.32 269.508,199.32 270.5,191.5 Z"/></g>
<g><path style="opacity:1" fill="#b4ada1" d="M 906.5,210.5 C 906.59,213.152 905.924,215.485 904.5,217.5C 904.41,214.848 905.076,212.515 906.5,210.5 Z"/></g>
<g><path style="opacity:1" fill="#a39d8d" d="M 488.5,209.5 C 488.913,213.183 488.079,216.517 486,219.5C 485.501,223.821 485.334,228.154 485.5,232.5C 483.622,224.481 484.622,216.814 488.5,209.5 Z"/></g>
<g><path style="opacity:1" fill="#ece8df" d="M 565.5,206.5 C 564.558,211.805 564.391,217.139 565,222.5C 566.699,223.406 568.533,223.739 570.5,223.5C 567.857,224.979 565.357,224.646 563,222.5C 562.057,216.778 562.89,211.444 565.5,206.5 Z"/></g>
<g><path style="opacity:1" fill="#e7e1db" d="M 621.5,211.5 C 621.331,216.181 620.998,220.848 620.5,225.5C 619.109,220.738 619.442,216.072 621.5,211.5 Z"/></g>
<g><path style="opacity:1" fill="#a8a293" d="M 728.5,207.5 C 726.914,215.879 725.581,224.212 724.5,232.5C 723.082,223.81 724.416,215.476 728.5,207.5 Z"/></g>
<g><path style="opacity:1" fill="#e6e0d9" d="M 743.5,213.5 C 743.629,217.477 743.629,221.143 743.5,224.5C 742.007,223.688 741.34,222.355 741.5,220.5C 741.724,217.92 742.391,215.586 743.5,213.5 Z"/></g>
<g><path style="opacity:1" fill="#b7b1a3" d="M 904.5,217.5 C 904.277,221.162 903.277,224.495 901.5,227.5C 901.723,223.838 902.723,220.505 904.5,217.5 Z"/></g>
<g><path style="opacity:1" fill="#e7e2d9" d="M 981.5,209.5 C 980.204,214.062 979.538,218.729 979.5,223.5C 981.167,223.5 982.833,223.5 984.5,223.5C 981.211,226.517 978.878,225.85 977.5,221.5C 978.268,217.197 979.601,213.197 981.5,209.5 Z"/></g>
<g><path style="opacity:1" fill="#b0aa9d" d="M 603.5,217.5 C 602.709,223.206 602.709,228.873 603.5,234.5C 602.003,232.71 601.336,230.544 601.5,228C 601.701,224.277 602.367,220.777 603.5,217.5 Z"/></g>
</svg>
