<?xml version="1.0" encoding="UTF-8"?>
<!DOCTYPE svg PUBLIC "-//W3C//DTD SVG 1.1//EN" "http://www.w3.org/Graphics/SVG/1.1/DTD/svg11.dtd">
<svg xmlns="http://www.w3.org/2000/svg" version="1.1" width="1179px" height="1004px" style="shape-rendering:geometricPrecision; text-rendering:geometricPrecision; image-rendering:optimizeQuality; fill-rule:evenodd; clip-rule:evenodd" xmlns:xlink="http://www.w3.org/1999/xlink">
<g><path style="opacity:1" fill="#fefefe" d="M -0.5,-0.5 C 392.5,-0.5 785.5,-0.5 1178.5,-0.5C 1178.5,334.167 1178.5,668.833 1178.5,1003.5C 785.5,1003.5 392.5,1003.5 -0.5,1003.5C -0.5,668.833 -0.5,334.167 -0.5,-0.5 Z"/></g>
<g><path style="opacity:1" fill="#a8a8a8" d="M 456.5,144.5 C 455.883,144.611 455.383,144.944 455,145.5C 454.005,149.145 453.172,152.812 452.5,156.5C 449.334,167.832 446.5,179.165 444,190.5C 450.471,183.025 458.304,177.525 467.5,174C 483.686,170.596 494.853,176.429 501,191.5C 503.1,221.133 491.933,244.299 467.5,261C 447.376,273.022 427.876,272.189 409,258.5C 408.333,256.833 408.333,255.167 409,253.5C 420.07,216.974 430.57,180.308 440.5,143.5C 441.943,140.765 442.943,137.765 443.5,134.5C 443.332,132.829 442.665,131.496 441.5,130.5C 436.993,128.286 432.327,127.953 427.5,129.5C 427.227,127.549 427.893,126.049 429.5,125C 440.863,122.713 452.197,121.213 463.5,120.5C 460.853,128.423 458.52,136.423 456.5,144.5 Z"/></g>
<g><path style="opacity:1" fill="#a8a8a8" d="M 586.5,247.5 C 584.518,250.373 584.185,253.373 585.5,256.5C 586.946,257.613 588.613,257.78 590.5,257C 594.74,252.062 599.407,248.062 604.5,245C 605.517,246.049 605.684,247.216 605,248.5C 599.081,256.421 591.914,262.921 583.5,268C 579.471,269.913 575.471,269.913 571.5,268C 570.54,266.581 569.707,265.081 569,263.5C 568.622,257.766 569.122,252.099 570.5,246.5C 572.534,242.587 574.2,238.421 575.5,234C 575.389,232.278 574.889,232.112 574,233.5C 573.074,235.692 571.907,237.692 570.5,239.5C 563.776,249.062 555.776,257.562 546.5,265C 525.404,273.933 514.071,266.766 512.5,243.5C 516.255,210.237 533.588,187.07 564.5,174C 574.771,171.589 583.105,174.423 589.5,182.5C 591.616,177.703 592.949,172.703 593.5,167.5C 595.097,165.152 596.097,162.486 596.5,159.5C 598.62,151.65 600.62,143.816 602.5,136C 602.959,133.04 601.959,130.874 599.5,129.5C 596.038,128.518 592.371,128.185 588.5,128.5C 588.5,127.5 588.5,126.5 588.5,125.5C 599.332,123.567 610.166,121.567 621,119.5C 621.833,119.833 622.667,120.167 623.5,120.5C 610.54,162.619 598.207,204.952 586.5,247.5 Z"/></g>
<g><path style="opacity:1" fill="#a8a8a8" d="M 760.5,129.5 C 757.038,128.518 753.371,128.185 749.5,128.5C 749.5,127.5 749.5,126.5 749.5,125.5C 760.57,122.912 771.904,121.245 783.5,120.5C 770.867,164.901 758.534,209.401 746.5,254C 747.138,257.293 749.138,258.293 752.5,257C 757.412,253.509 761.412,249.176 764.5,244C 766.391,243.691 767.725,244.525 768.5,246.5C 762.259,256.293 753.926,263.793 743.5,269C 735.84,271.31 731.173,268.643 729.5,261C 730.041,257.172 730.541,253.339 731,249.5C 742.71,211.16 753.877,172.66 764.5,134C 764.178,131.479 762.844,129.979 760.5,129.5 Z"/></g>
<g><path style="opacity:1" fill="#a8a8a8" d="M 811.5,231.5 C 809.603,233.698 808.603,236.364 808.5,239.5C 808.5,240.167 808.5,240.833 808.5,241.5C 807.883,241.611 807.383,241.944 807,242.5C 806.333,245.167 805.667,247.833 805,250.5C 804.211,252.712 804.378,254.712 805.5,256.5C 808.214,257.863 810.881,257.696 813.5,256C 817.53,252.074 821.196,247.907 824.5,243.5C 825.5,244.5 826.5,245.5 827.5,246.5C 824.023,251.145 820.356,255.645 816.5,260C 811.242,265.296 804.909,268.462 797.5,269.5C 791.777,268.771 788.777,265.438 788.5,259.5C 799.681,218.451 811.181,177.451 823,136.5C 824.314,132.834 823.148,130.5 819.5,129.5C 816.038,128.518 812.371,128.185 808.5,128.5C 808.5,127.5 808.5,126.5 808.5,125.5C 820.149,122.921 831.816,121.254 843.5,120.5C 832.076,157.288 821.41,194.288 811.5,231.5 Z"/></g>
<g><path style="opacity:1" fill="#a8a8a8" d="M 980.5,213.5 C 978.762,215.119 978.262,217.119 979,219.5C 980.095,218.307 980.928,216.973 981.5,215.5C 990.73,200.229 1002.4,187.062 1016.5,176C 1022.86,172.728 1029.19,172.728 1035.5,176C 1037.14,177.129 1038.14,178.629 1038.5,180.5C 1038.8,188.674 1037.8,196.674 1035.5,204.5C 1031.15,221.225 1026.48,237.892 1021.5,254.5C 1022.1,257.246 1023.76,258.08 1026.5,257C 1031.17,253.667 1035.17,249.667 1038.5,245C 1040.32,244.217 1041.65,244.717 1042.5,246.5C 1035.94,255.565 1027.94,263.065 1018.5,269C 1007.89,270.715 1003.72,266.215 1006,255.5C 1009.86,239.258 1014.53,223.258 1020,207.5C 1021.03,202.856 1021.86,198.19 1022.5,193.5C 1023.15,192.726 1023.48,191.726 1023.5,190.5C 1023.66,188.645 1022.99,187.312 1021.5,186.5C 1018.45,185.115 1015.45,185.281 1012.5,187C 1006.7,191.8 1001.2,196.967 996,202.5C 990,211.833 984,221.167 978,230.5C 973.122,241.309 968.956,252.309 965.5,263.5C 964.596,264.209 964.263,265.209 964.5,266.5C 959.833,266.5 955.167,266.5 950.5,266.5C 950.517,264.435 950.85,262.435 951.5,260.5C 958.354,236.599 965.02,212.599 971.5,188.5C 973.587,184.51 974.92,180.177 975.5,175.5C 978.498,164.837 981.498,154.171 984.5,143.5C 985.866,141.082 986.866,138.416 987.5,135.5C 987.332,133.829 986.665,132.496 985.5,131.5C 981.271,128.324 976.604,127.658 971.5,129.5C 971.227,127.549 971.893,126.049 973.5,125C 984.827,123.057 996.16,121.223 1007.5,119.5C 998.806,150.946 989.806,182.279 980.5,213.5 Z"/></g>
<g><path style="opacity:1" fill="#a8a8a8" d="M 381.5,130.5 C 380.778,130.918 380.278,131.584 380,132.5C 379.349,138.827 378.849,145.16 378.5,151.5C 378.287,158.174 377.954,164.841 377.5,171.5C 375.256,183.253 373.923,195.253 373.5,207.5C 371.971,223.476 371.138,239.476 371,255.5C 374.878,261.98 380.711,264.98 388.5,264.5C 388.167,265.167 387.833,265.833 387.5,266.5C 369.179,267.5 350.845,267.833 332.5,267.5C 332.5,266.167 332.5,264.833 332.5,263.5C 340.32,264.401 346.487,261.735 351,255.5C 352.701,245.553 353.867,235.553 354.5,225.5C 355.451,224.081 355.784,222.415 355.5,220.5C 341.656,220.171 327.99,220.504 314.5,221.5C 307.345,230.473 300.679,239.806 294.5,249.5C 292.974,250.492 292.307,251.992 292.5,254C 292.514,255.385 292.848,256.551 293.5,257.5C 295.954,261.57 299.621,263.903 304.5,264.5C 304.167,265.167 303.833,265.833 303.5,266.5C 289.85,267.499 276.183,267.833 262.5,267.5C 262.5,266.167 262.5,264.833 262.5,263.5C 267.193,263.102 271.526,261.602 275.5,259C 278.973,255.527 282.473,252.027 286,248.5C 316.333,207.167 346.667,165.833 377,124.5C 378.356,123.62 379.856,123.286 381.5,123.5C 381.5,125.833 381.5,128.167 381.5,130.5 Z"/></g>
<g><path style="opacity:1" fill="#dddddd" d="M 588.5,125.5 C 588.5,126.5 588.5,127.5 588.5,128.5C 592.371,128.185 596.038,128.518 599.5,129.5C 595.5,129.5 591.5,129.5 587.5,129.5C 587.232,127.901 587.566,126.568 588.5,125.5 Z"/></g>
<g><path style="opacity:1" fill="#dfdfdf" d="M 749.5,125.5 C 749.5,126.5 749.5,127.5 749.5,128.5C 753.371,128.185 757.038,128.518 760.5,129.5C 756.5,129.5 752.5,129.5 748.5,129.5C 748.232,127.901 748.566,126.568 749.5,125.5 Z"/></g>
<g><path style="opacity:1" fill="#dfdfdf" d="M 808.5,125.5 C 808.5,126.5 808.5,127.5 808.5,128.5C 812.371,128.185 816.038,128.518 819.5,129.5C 815.5,129.5 811.5,129.5 807.5,129.5C 807.232,127.901 807.566,126.568 808.5,125.5 Z"/></g>
<g><path style="opacity:1" fill="#e2e2e2" d="M 441.5,130.5 C 442.665,131.496 443.332,132.829 443.5,134.5C 442.943,137.765 441.943,140.765 440.5,143.5C 441.2,139.202 441.533,134.869 441.5,130.5 Z"/></g>
<g><path style="opacity:1" fill="#e3e3e3" d="M 985.5,131.5 C 986.665,132.496 987.332,133.829 987.5,135.5C 986.866,138.416 985.866,141.082 984.5,143.5C 985.162,139.534 985.495,135.534 985.5,131.5 Z"/></g>
<g><path style="opacity:1" fill="#c3c3c3" d="M 381.5,130.5 C 381.153,137.731 380.153,144.731 378.5,151.5C 378.849,145.16 379.349,138.827 380,132.5C 380.278,131.584 380.778,130.918 381.5,130.5 Z"/></g>
<g><path style="opacity:1" fill="#c3c3c3" d="M 456.5,144.5 C 456.034,148.886 454.701,152.886 452.5,156.5C 453.172,152.812 454.005,149.145 455,145.5C 455.383,144.944 455.883,144.611 456.5,144.5 Z"/></g>
<g><path style="opacity:1" fill="#dddddd" d="M 596.5,159.5 C 596.097,162.486 595.097,165.152 593.5,167.5C 593.603,164.364 594.603,161.698 596.5,159.5 Z"/></g>
<g><path style="opacity:1" fill="#fcfcfc" d="M 359.5,170.5 C 358.921,182.205 357.921,193.872 356.5,205.5C 355.532,207.607 355.198,209.941 355.5,212.5C 344.116,213.144 333.116,212.477 322.5,210.5C 333.813,194.527 345.48,178.861 357.5,163.5C 358.117,163.389 358.617,163.056 359,162.5C 359.497,165.146 359.664,167.813 359.5,170.5 Z"/></g>
<g><path style="opacity:1" fill="#e6e6e6" d="M 359.5,170.5 C 359.664,167.813 359.497,165.146 359,162.5C 358.617,163.056 358.117,163.389 357.5,163.5C 358.031,161.456 359.198,159.789 361,158.5C 361.145,162.677 360.645,166.677 359.5,170.5 Z"/></g>
<g><path style="opacity:1" fill="#a8a8a8" d="M 896.5,173.5 C 916.931,170.445 930.431,178.445 937,197.5C 938.911,231.278 924.078,254.445 892.5,267C 864.024,274.831 848.358,264.164 845.5,235C 849.473,203.847 866.473,183.347 896.5,173.5 Z"/></g>
<g><path style="opacity:1" fill="#bebebe" d="M 713.5,178.5 C 711.603,177.195 709.269,176.529 706.5,176.5C 703.747,176.551 701.08,176.884 698.5,177.5C 703.396,175.554 708.729,174.887 714.5,175.5C 714.737,176.791 714.404,177.791 713.5,178.5 Z"/></g>
<g><path style="opacity:1" fill="#a8a8a8" d="M 643.5,240.5 C 641.446,243.008 640.446,246.008 640.5,249.5C 639.333,255.496 641.666,257.996 647.5,257C 654.813,253.693 660.98,248.86 666,242.5C 672.579,233.675 678.913,224.675 685,215.5C 690.719,203.305 695.219,190.638 698.5,177.5C 701.08,176.884 703.747,176.551 706.5,176.5C 709.269,176.529 711.603,177.195 713.5,178.5C 706.759,203.85 699.759,229.183 692.5,254.5C 693.306,258.8 695.639,259.633 699.5,257C 703,252.833 706.5,248.667 710,244.5C 712.603,246.505 712.603,248.838 710,251.5C 704.6,259.573 697.433,265.406 688.5,269C 681.269,271.095 677.269,268.428 676.5,261C 678.78,249.382 681.447,237.882 684.5,226.5C 685.905,224.36 686.738,222.026 687,219.5C 685.053,221.063 683.886,223.063 683.5,225.5C 677.303,235.212 670.469,244.546 663,253.5C 656.111,262.443 647.111,267.776 636,269.5C 630.367,269.36 626.534,266.694 624.5,261.5C 624.467,257.131 624.8,252.798 625.5,248.5C 627.636,238.764 629.969,229.098 632.5,219.5C 634.097,217.152 635.097,214.486 635.5,211.5C 636.475,208.933 637.142,206.267 637.5,203.5C 638.79,200.358 639.79,197.025 640.5,193.5C 641.39,191.218 641.556,188.885 641,186.5C 639.534,184.675 637.701,184.175 635.5,185C 631.276,188.887 627.442,193.054 624,197.5C 622.5,197.333 621.667,196.5 621.5,195C 626.34,186.566 633.007,179.899 641.5,175C 653.951,170.45 659.451,174.616 658,187.5C 653.151,205.188 648.317,222.855 643.5,240.5 Z"/></g>
<g><path style="opacity:1" fill="#fdfdfd" d="M 566.5,178.5 C 578.565,177.239 584.565,182.573 584.5,194.5C 584.455,198.889 583.955,203.223 583,207.5C 575.747,225.508 564.914,241.008 550.5,254C 541.61,260.122 535.11,258.289 531,248.5C 530.255,223.068 539.089,201.568 557.5,184C 560.564,182.141 563.564,180.308 566.5,178.5 Z"/></g>
<g><path style="opacity:1" fill="#fdfdfd" d="M 898.5,178.5 C 913.479,178.146 920.812,185.479 920.5,200.5C 919.305,223.385 910.638,242.885 894.5,259C 887.034,264.755 879.034,265.755 870.5,262C 864.108,256.291 861.441,249.124 862.5,240.5C 864.273,218.457 872.939,199.623 888.5,184C 891.767,181.87 895.1,180.037 898.5,178.5 Z"/></g>
<g><path style="opacity:1" fill="#e1e1e1" d="M 975.5,175.5 C 974.92,180.177 973.587,184.51 971.5,188.5C 972.08,183.823 973.413,179.49 975.5,175.5 Z"/></g>
<g><path style="opacity:1" fill="#fdfdfd" d="M 432.5,225.5 C 434.432,221.805 435.765,217.805 436.5,213.5C 441.156,193.648 453.489,183.814 473.5,184C 478.757,186.256 482.257,190.09 484,195.5C 486.11,218.838 479.277,239.005 463.5,256C 451.352,265.627 438.352,266.96 424.5,260C 423.978,259.439 423.645,258.772 423.5,258C 426.807,247.246 429.807,236.412 432.5,225.5 Z"/></g>
<g><path style="opacity:1" fill="#d6d6d6" d="M 1021.5,186.5 C 1022.99,187.312 1023.66,188.645 1023.5,190.5C 1023.48,191.726 1023.15,192.726 1022.5,193.5C 1022.55,191.097 1022.22,188.764 1021.5,186.5 Z"/></g>
<g><path style="opacity:1" fill="#c5c5c5" d="M 377.5,171.5 C 376.72,183.707 375.386,195.707 373.5,207.5C 373.923,195.253 375.256,183.253 377.5,171.5 Z"/></g>
<g><path style="opacity:1" fill="#bebebe" d="M 1038.5,180.5 C 1039.65,184.646 1039.81,188.98 1039,193.5C 1038.88,197.614 1037.72,201.281 1035.5,204.5C 1037.8,196.674 1038.8,188.674 1038.5,180.5 Z"/></g>
<g><path style="opacity:1" fill="#dddddd" d="M 640.5,193.5 C 639.79,197.025 638.79,200.358 637.5,203.5C 637.288,199.655 638.288,196.321 640.5,193.5 Z"/></g>
<g><path style="opacity:1" fill="#e8e8e8" d="M 356.5,205.5 C 356.5,208.167 356.5,210.833 356.5,213.5C 344.482,213.832 332.482,213.499 320.5,212.5C 320.855,211.478 321.522,210.811 322.5,210.5C 333.116,212.477 344.116,213.144 355.5,212.5C 355.198,209.941 355.532,207.607 356.5,205.5 Z"/></g>
<g><path style="opacity:1" fill="#dfdfdf" d="M 635.5,211.5 C 635.097,214.486 634.097,217.152 632.5,219.5C 632.603,216.364 633.603,213.698 635.5,211.5 Z"/></g>
<g><path style="opacity:1" fill="#bdbdbd" d="M 436.5,213.5 C 435.765,217.805 434.432,221.805 432.5,225.5C 433.172,221.812 434.005,218.145 435,214.5C 435.383,213.944 435.883,213.611 436.5,213.5 Z"/></g>
<g><path style="opacity:1" fill="#cecece" d="M 980.5,213.5 C 980.328,214.492 980.662,215.158 981.5,215.5C 980.928,216.973 980.095,218.307 979,219.5C 978.262,217.119 978.762,215.119 980.5,213.5 Z"/></g>
<g><path style="opacity:1" fill="#d7d7d7" d="M 314.5,221.5 C 327.99,220.504 341.656,220.171 355.5,220.5C 355.784,222.415 355.451,224.081 354.5,225.5C 354.5,224.167 354.5,222.833 354.5,221.5C 341.167,221.5 327.833,221.5 314.5,221.5 Z"/></g>
<g><path style="opacity:1" fill="#dcdcdc" d="M 684.5,226.5 C 684.5,225.833 684.167,225.5 683.5,225.5C 683.886,223.063 685.053,221.063 687,219.5C 686.738,222.026 685.905,224.36 684.5,226.5 Z"/></g>
<g><path style="opacity:1" fill="#c6c6c6" d="M 811.5,231.5 C 811.097,234.486 810.097,237.152 808.5,239.5C 808.603,236.364 809.603,233.698 811.5,231.5 Z"/></g>
<g><path style="opacity:1" fill="#e8e8e8" d="M 570.5,246.5 C 571.417,243.995 571.417,241.662 570.5,239.5C 571.907,237.692 573.074,235.692 574,233.5C 574.889,232.112 575.389,232.278 575.5,234C 574.2,238.421 572.534,242.587 570.5,246.5 Z"/></g>
<g><path style="opacity:1" fill="#c0c0c0" d="M 808.5,241.5 C 807.025,246.4 806.025,251.4 805.5,256.5C 804.378,254.712 804.211,252.712 805,250.5C 805.667,247.833 806.333,245.167 807,242.5C 807.383,241.944 807.883,241.611 808.5,241.5 Z"/></g>
<g><path style="opacity:1" fill="#c6c6c6" d="M 643.5,240.5 C 642.946,243.746 641.946,246.746 640.5,249.5C 640.446,246.008 641.446,243.008 643.5,240.5 Z"/></g>
<g><path style="opacity:1" fill="#d2d2d2" d="M 586.5,247.5 C 586.037,250.482 585.704,253.482 585.5,256.5C 584.185,253.373 584.518,250.373 586.5,247.5 Z"/></g>
<g><path style="opacity:1" fill="#e6e6e6" d="M 625.5,248.5 C 624.8,252.798 624.467,257.131 624.5,261.5C 623.839,259.866 623.506,258.033 623.5,256C 623.3,253.134 623.967,250.634 625.5,248.5 Z"/></g>
<g><path style="opacity:1" fill="#c7c7c7" d="M 294.5,249.5 C 293.735,252.096 293.401,254.763 293.5,257.5C 292.848,256.551 292.514,255.385 292.5,254C 292.307,251.992 292.974,250.492 294.5,249.5 Z"/></g>
<g><path style="opacity:1" fill="#c8c8c8" d="M 951.5,260.5 C 950.85,262.435 950.517,264.435 950.5,266.5C 955.167,266.5 959.833,266.5 964.5,266.5C 964.263,265.209 964.596,264.209 965.5,263.5C 965.5,264.833 965.5,266.167 965.5,267.5C 960.167,267.5 954.833,267.5 949.5,267.5C 949.338,265.473 949.505,263.473 950,261.5C 950.383,260.944 950.883,260.611 951.5,260.5 Z"/></g>
</svg>
