<?xml version="1.0" encoding="UTF-8"?>
<!DOCTYPE svg PUBLIC "-//W3C//DTD SVG 1.1//EN" "http://www.w3.org/Graphics/SVG/1.1/DTD/svg11.dtd">
<svg xmlns="http://www.w3.org/2000/svg" version="1.1" width="1028px" height="519px" style="shape-rendering:geometricPrecision; text-rendering:geometricPrecision; image-rendering:optimizeQuality; fill-rule:evenodd; clip-rule:evenodd" xmlns:xlink="http://www.w3.org/1999/xlink">
<g><path style="opacity:1" fill="#fefefe" d="M -0.5,-0.5 C 342.167,-0.5 684.833,-0.5 1027.5,-0.5C 1027.5,172.5 1027.5,345.5 1027.5,518.5C 684.833,518.5 342.167,518.5 -0.5,518.5C -0.5,345.5 -0.5,172.5 -0.5,-0.5 Z"/></g>
<g><path style="opacity:1" fill="#d9d6d1" d="M 234.5,143.5 C 235.568,142.566 236.901,142.232 238.5,142.5C 238.784,144.415 238.451,146.081 237.5,147.5C 237.5,146.167 237.5,144.833 237.5,143.5C 236.5,143.5 235.5,143.5 234.5,143.5 Z"/></g>
<g><path style="opacity:1" fill="#e2ded8" d="M 287.5,189.5 C 291.981,188.352 296.648,188.185 301.5,189C 303.653,189.099 305.319,189.933 306.5,191.5C 300.301,189.817 293.968,189.151 287.5,189.5 Z"/></g>
<g><path style="opacity:1" fill="#e2dfd7" d="M 543.5,191.5 C 543.38,190.414 542.713,189.747 541.5,189.5C 538.218,190.488 534.885,191.154 531.5,191.5C 535.393,189.124 539.727,188.124 544.5,188.5C 544.737,189.791 544.404,190.791 543.5,191.5 Z"/></g>
<g><path style="opacity:1" fill="#948874" d="M 234.5,143.5 C 235.5,143.5 236.5,143.5 237.5,143.5C 237.5,144.833 237.5,146.167 237.5,147.5C 234.123,160.382 231.123,173.382 228.5,186.5C 227.5,186.5 226.5,186.5 225.5,186.5C 228.244,161.142 216.91,149.308 191.5,151C 175.036,157.419 171.203,168.252 180,183.5C 189.636,194.137 199.636,204.471 210,214.5C 212.426,217.691 214.593,221.025 216.5,224.5C 216.737,227.647 217.57,230.647 219,233.5C 219.499,237.486 219.666,241.486 219.5,245.5C 216.468,261.532 207.135,271.865 191.5,276.5C 184.52,277.165 177.52,277.498 170.5,277.5C 162.148,275.884 153.982,273.55 146,270.5C 141.627,271.204 138.793,273.704 137.5,278C 136.552,278.483 135.552,278.649 134.5,278.5C 137.449,262.42 140.783,246.42 144.5,230.5C 145.5,230.5 146.5,230.5 147.5,230.5C 144.948,244.997 148.948,257.163 159.5,267C 162.561,269.035 165.895,270.201 169.5,270.5C 173.981,271.648 178.648,271.815 183.5,271C 185.723,270.434 187.723,269.6 189.5,268.5C 195.999,265.148 200.166,259.815 202,252.5C 202.667,247.833 202.667,243.167 202,238.5C 199.499,233.494 196.499,228.827 193,224.5C 182.964,214.132 173.297,203.466 164,192.5C 154.71,170.588 160.876,154.755 182.5,145C 189.433,143.494 196.433,143.161 203.5,144C 210.424,146.475 217.424,148.642 224.5,150.5C 229.518,150.471 232.851,148.138 234.5,143.5 Z"/></g>
<g><path style="opacity:1" fill="#e8e4da" d="M 467.5,190.5 C 460.612,188.922 453.945,189.589 447.5,192.5C 448.975,190.59 450.975,189.424 453.5,189C 457.833,188.333 462.167,188.333 466.5,189C 467.056,189.383 467.389,189.883 467.5,190.5 Z"/></g>
<g><path style="opacity:1" fill="#948975" d="M 563.5,204.5 C 561.167,203.167 558.833,201.833 556.5,200.5C 562.024,192.558 569.358,189.392 578.5,191C 580.523,194.183 581.023,197.683 580,201.5C 578.63,205.133 576.796,208.467 574.5,211.5C 572.232,212.544 569.899,212.711 567.5,212C 565.872,209.583 564.539,207.083 563.5,204.5 Z"/></g>
<g><path style="opacity:1" fill="#9f998b" d="M 663.5,205.5 C 664.341,201.134 665.341,196.801 666.5,192.5C 662.893,191.511 659.226,191.177 655.5,191.5C 658.823,190.638 662.323,189.972 666,189.5C 666.833,189.833 667.667,190.167 668.5,190.5C 667.275,195.77 665.608,200.77 663.5,205.5 Z"/></g>
<g><path style="opacity:1" fill="#948974" d="M 351.5,197.5 C 352.331,203.156 353.165,208.823 354,214.5C 354.614,218.475 355.781,222.141 357.5,225.5C 358.35,232.799 358.683,240.132 358.5,247.5C 358.5,252.167 358.5,256.833 358.5,261.5C 360.484,261.617 362.15,260.95 363.5,259.5C 364.298,259.957 364.631,260.624 364.5,261.5C 359.642,266.523 354.975,271.69 350.5,277C 348.866,277.494 347.199,277.66 345.5,277.5C 345.314,266.828 344.981,256.161 344.5,245.5C 343.988,235.918 342.655,226.584 340.5,217.5C 339.934,211.902 338.434,206.569 336,201.5C 331.882,197.408 327.049,196.408 321.5,198.5C 321.5,197.167 321.5,195.833 321.5,194.5C 330.198,193.05 338.865,191.383 347.5,189.5C 350.147,191.403 351.481,194.07 351.5,197.5 Z"/></g>
<g><path style="opacity:1" fill="#958a76" d="M 399.5,214.5 C 397.879,214.213 396.879,213.213 396.5,211.5C 397.921,208.572 396.921,207.238 393.5,207.5C 385.805,203.998 383.805,198.498 387.5,191C 397.034,187.762 402.367,191.095 403.5,201C 403.308,205.952 401.975,210.452 399.5,214.5 Z"/></g>
<g><path style="opacity:1" fill="#948872" d="M 543.5,191.5 C 540.679,201.118 538.012,210.784 535.5,220.5C 533.928,223.215 532.928,226.215 532.5,229.5C 530.559,231.011 530.059,233.011 531,235.5C 532.554,233.073 533.721,233.073 534.5,235.5C 533.4,236.605 532.733,237.938 532.5,239.5C 531.5,239.5 530.5,239.5 529.5,239.5C 528.397,242.836 527.23,246.17 526,249.5C 525.667,247.833 525.333,246.167 525,244.5C 523.015,242.543 521.515,240.21 520.5,237.5C 521.537,230.294 523.371,223.294 526,216.5C 526.38,211.653 526.88,206.82 527.5,202C 527.325,200.342 526.658,199.009 525.5,198C 525.833,197.667 526.167,197.333 526.5,197C 515.51,196.06 515.177,195.06 525.5,194C 527.066,193.392 528.4,192.558 529.5,191.5C 530.167,191.5 530.833,191.5 531.5,191.5C 534.885,191.154 538.218,190.488 541.5,189.5C 542.713,189.747 543.38,190.414 543.5,191.5 Z"/></g>
<g><path style="opacity:1" fill="#d0c9be" d="M 515.5,193.5 C 514.791,194.404 513.791,194.737 512.5,194.5C 512.285,196.179 512.952,197.179 514.5,197.5C 513.791,198.404 512.791,198.737 511.5,198.5C 511.5,196.833 511.5,195.167 511.5,193.5C 512.833,193.5 514.167,193.5 515.5,193.5 Z"/></g>
<g><path style="opacity:1" fill="#9e9788" d="M 490.5,203.5 C 490.031,199.09 491.031,195.09 493.5,191.5C 489.599,191.142 485.599,191.142 481.5,191.5C 485.618,190.291 489.951,189.624 494.5,189.5C 493.784,194.46 492.451,199.126 490.5,203.5 Z"/></g>
<g><path style="opacity:1" fill="#958975" d="M 655.5,191.5 C 659.226,191.177 662.893,191.511 666.5,192.5C 665.341,196.801 664.341,201.134 663.5,205.5C 658.195,224.583 653.195,243.749 648.5,263C 648.667,264.5 648.833,266 649,267.5C 649.561,268.022 650.228,268.355 651,268.5C 655.988,264.846 660.321,260.512 664,255.5C 665.158,255.998 665.991,256.831 666.5,258C 662.279,265.055 656.612,270.555 649.5,274.5C 645.028,276.216 640.362,276.882 635.5,276.5C 633.251,274.157 632.251,271.323 632.5,268C 632.972,262.613 634.305,257.446 636.5,252.5C 631.036,257.452 625.37,262.952 619.5,269C 612.073,275.714 603.406,278.381 593.5,277C 586.983,273.466 583.15,267.966 582,260.5C 582.899,230.599 596.066,207.766 621.5,192C 629.765,188.358 637.765,188.691 645.5,193C 647.371,195.37 649.038,197.87 650.5,200.5C 651.791,198.129 652.791,195.629 653.5,193C 653.836,191.97 654.503,191.47 655.5,191.5 Z"/></g>
<g><path style="opacity:1" fill="#fdfdfb" d="M 599.5,262.5 C 597.848,257.659 597.182,252.659 597.5,247.5C 600.467,227.104 609.8,210.271 625.5,197C 630.711,194.234 636.044,193.901 641.5,196C 643.378,197.543 644.878,199.376 646,201.5C 647.074,228.085 636.908,249.252 615.5,265C 609.43,267.746 604.097,266.913 599.5,262.5 Z"/></g>
<g><path style="opacity:1" fill="#988f7c" d="M 393.5,207.5 C 396.921,207.238 397.921,208.572 396.5,211.5C 396.879,213.213 397.879,214.213 399.5,214.5C 390.511,232.139 378.844,247.805 364.5,261.5C 364.631,260.624 364.298,259.957 363.5,259.5C 362.15,260.95 360.484,261.617 358.5,261.5C 358.5,256.833 358.5,252.167 358.5,247.5C 359.325,251.647 359.825,255.981 360,260.5C 370.43,248.74 380.096,236.407 389,223.5C 392.232,218.639 393.732,213.306 393.5,207.5 Z"/></g>
<g><path style="opacity:1" fill="#a29b8c" d="M 351.5,197.5 C 354.558,206.484 356.558,215.817 357.5,225.5C 355.781,222.141 354.614,218.475 354,214.5C 353.165,208.823 352.331,203.156 351.5,197.5 Z"/></g>
<g><path style="opacity:1" fill="#958a76" d="M 287.5,189.5 C 293.968,189.151 300.301,189.817 306.5,191.5C 314.864,196.612 316.697,203.612 312,212.5C 303.777,223.547 292.944,231.047 279.5,235C 271.16,236.568 262.827,238.068 254.5,239.5C 251.257,251.967 255.257,261.134 266.5,267C 273.668,267.988 280.668,267.322 287.5,265C 293.601,260.624 299.934,256.79 306.5,253.5C 305.564,256.959 303.564,259.793 300.5,262C 293.97,267.098 286.97,271.431 279.5,275C 250.307,282.802 236.141,271.636 237,241.5C 243.575,214.093 260.408,196.76 287.5,189.5 Z"/></g>
<g><path style="opacity:1" fill="#fcfbfa" d="M 284.5,194.5 C 301.501,193.679 305.335,200.679 296,215.5C 284.737,227.38 270.904,233.714 254.5,234.5C 258.159,216.204 268.159,202.871 284.5,194.5 Z"/></g>
<g><path style="opacity:1" fill="#ede6de" d="M 535.5,220.5 C 535.285,222.179 535.952,223.179 537.5,223.5C 536.277,226.274 534.777,228.941 533,231.5C 532.536,230.906 532.369,230.239 532.5,229.5C 532.928,226.215 533.928,223.215 535.5,220.5 Z"/></g>
<g><path style="opacity:1" fill="#9b9281" d="M 556.5,200.5 C 558.833,201.833 561.167,203.167 563.5,204.5C 559.65,204.178 556.483,205.511 554,208.5C 546.989,217.214 540.489,226.214 534.5,235.5C 533.721,233.073 532.554,233.073 531,235.5C 530.059,233.011 530.559,231.011 532.5,229.5C 532.369,230.239 532.536,230.906 533,231.5C 534.777,228.941 536.277,226.274 537.5,223.5C 542.701,214.959 549.034,207.293 556.5,200.5 Z"/></g>
<g><path style="opacity:1" fill="#dfdbd0" d="M 340.5,217.5 C 342.655,226.584 343.988,235.918 344.5,245.5C 342.526,236.39 341.192,227.056 340.5,217.5 Z"/></g>
<g><path style="opacity:1" fill="#948974" d="M 467.5,190.5 C 471.84,192.674 475.006,196.007 477,200.5C 477.833,198 478.667,195.5 479.5,193C 479.836,191.97 480.503,191.47 481.5,191.5C 485.599,191.142 489.599,191.142 493.5,191.5C 491.031,195.09 490.031,199.09 490.5,203.5C 485.533,223.037 480.2,242.371 474.5,261.5C 473.883,261.611 473.383,261.944 473,262.5C 472.833,263.833 472.667,265.167 472.5,266.5C 472.6,269.089 473.1,271.422 474,273.5C 472.119,272.646 470.286,272.979 468.5,274.5C 464.67,273.737 462.337,271.403 461.5,267.5C 462.33,262.86 462.997,258.194 463.5,253.5C 463.674,251.307 463.007,249.473 461.5,248C 462.464,246.275 463.131,244.441 463.5,242.5C 466.515,237.13 469.015,231.463 471,225.5C 472.488,217.555 472.822,209.555 472,201.5C 468.439,194.922 462.939,192.755 455.5,195C 443.761,202.41 435.261,212.577 430,225.5C 424.912,235.608 422.912,246.274 424,257.5C 424.791,258.745 425.291,260.078 425.5,261.5C 424.846,265.683 426.512,268.516 430.5,270C 429.289,270.893 429.289,271.726 430.5,272.5C 433.4,270.049 436.734,268.715 440.5,268.5C 440.5,269.5 440.5,270.5 440.5,271.5C 437.252,272.952 434.252,274.619 431.5,276.5C 428.024,277.643 424.358,277.81 420.5,277C 417.062,275.389 414.062,273.223 411.5,270.5C 408.327,262.417 407.66,254.083 409.5,245.5C 415.068,222.679 427.735,205.013 447.5,192.5C 453.945,189.589 460.612,188.922 467.5,190.5 Z"/></g>
<g><path style="opacity:1" fill="#fdfdfc" d="M 463.5,242.5 C 458.447,250.391 452.114,257.224 444.5,263C 439.453,266.484 434.12,267.151 428.5,265C 427.364,263.855 426.364,262.688 425.5,261.5C 425.291,260.078 424.791,258.745 424,257.5C 422.912,246.274 424.912,235.608 430,225.5C 435.261,212.577 443.761,202.41 455.5,195C 462.939,192.755 468.439,194.922 472,201.5C 472.822,209.555 472.488,217.555 471,225.5C 469.015,231.463 466.515,237.13 463.5,242.5 Z"/></g>
<g><path style="opacity:1" fill="#968b78" d="M 529.5,191.5 C 528.4,192.558 527.066,193.392 525.5,194C 515.177,195.06 515.51,196.06 526.5,197C 526.167,197.333 525.833,197.667 525.5,198C 526.658,199.009 527.325,200.342 527.5,202C 526.88,206.82 526.38,211.653 526,216.5C 523.371,223.294 521.537,230.294 520.5,237.5C 521.515,240.21 523.015,242.543 525,244.5C 525.333,246.167 525.667,247.833 526,249.5C 527.23,246.17 528.397,242.836 529.5,239.5C 530.5,239.5 531.5,239.5 532.5,239.5C 526.682,250.491 522.515,262.158 520,274.5C 515.263,275.469 510.43,275.803 505.5,275.5C 510.53,257.053 516.03,238.72 522,220.5C 523.614,214.929 524.781,209.262 525.5,203.5C 525.449,201.9 525.116,200.4 524.5,199C 521.312,197.684 517.978,197.184 514.5,197.5C 512.952,197.179 512.285,196.179 512.5,194.5C 513.791,194.737 514.791,194.404 515.5,193.5C 520.167,192.833 524.833,192.167 529.5,191.5 Z"/></g>
<g><path style="opacity:1" fill="#ada79a" d="M 216.5,224.5 C 220.392,231.116 221.392,238.116 219.5,245.5C 219.666,241.486 219.499,237.486 219,233.5C 217.57,230.647 216.737,227.647 216.5,224.5 Z"/></g>
<g><path style="opacity:1" fill="#e7e4db" d="M 409.5,245.5 C 407.66,254.083 408.327,262.417 411.5,270.5C 409.59,269.025 408.424,267.025 408,264.5C 407.833,261.333 407.667,258.167 407.5,255C 407.515,251.424 408.182,248.258 409.5,245.5 Z"/></g>
<g><path style="opacity:1" fill="#988e7c" d="M 463.5,242.5 C 463.131,244.441 462.464,246.275 461.5,248C 463.007,249.473 463.674,251.307 463.5,253.5C 462.997,258.194 462.33,262.86 461.5,267.5C 462.337,271.403 464.67,273.737 468.5,274.5C 470.286,272.979 472.119,272.646 474,273.5C 473.1,271.422 472.6,269.089 472.5,266.5C 472.667,265.167 472.833,263.833 473,262.5C 473.383,261.944 473.883,261.611 474.5,261.5C 473.408,266.123 475.075,267.956 479.5,267C 483.294,263.371 486.96,259.538 490.5,255.5C 492.39,255.869 493.224,256.869 493,258.5C 490.333,261.833 487.667,265.167 485,268.5C 479.022,275.407 471.522,278.24 462.5,277C 461.956,276.283 461.289,275.783 460.5,275.5C 458.876,267.824 459.543,260.324 462.5,253C 462.333,252.5 462.167,252 462,251.5C 460.668,253.66 459.168,255.66 457.5,257.5C 453.363,262.469 448.696,266.969 443.5,271C 439.856,273.656 435.856,275.489 431.5,276.5C 434.252,274.619 437.252,272.952 440.5,271.5C 440.5,270.5 440.5,269.5 440.5,268.5C 436.734,268.715 433.4,270.049 430.5,272.5C 429.289,271.726 429.289,270.893 430.5,270C 426.512,268.516 424.846,265.683 425.5,261.5C 426.364,262.688 427.364,263.855 428.5,265C 434.12,267.151 439.453,266.484 444.5,263C 452.114,257.224 458.447,250.391 463.5,242.5 Z"/></g>
<g><path style="opacity:1" fill="#eeeae2" d="M 460.5,275.5 C 458.955,274.77 458.122,273.437 458,271.5C 457.373,267.217 457.873,263.051 459.5,259C 459.164,257.97 458.497,257.47 457.5,257.5C 459.168,255.66 460.668,253.66 462,251.5C 462.167,252 462.333,252.5 462.5,253C 459.543,260.324 458.876,267.824 460.5,275.5 Z"/></g>
<g><path style="opacity:1" fill="#a9a192" d="M 597.5,247.5 C 597.182,252.659 597.848,257.659 599.5,262.5C 598.542,262.047 597.708,261.381 597,260.5C 596.186,255.98 596.353,251.646 597.5,247.5 Z"/></g>
<g><path style="opacity:1" fill="#e4e1db" d="M 189.5,268.5 C 187.723,269.6 185.723,270.434 183.5,271C 178.648,271.815 173.981,271.648 169.5,270.5C 176.289,270.799 182.956,270.132 189.5,268.5 Z"/></g>
<g><path style="opacity:1" fill="#aaa296" d="M 649.5,274.5 C 648.942,275.79 647.942,276.623 646.5,277C 642.642,277.81 638.976,277.643 635.5,276.5C 640.362,276.882 645.028,276.216 649.5,274.5 Z"/></g>
<g><path style="opacity:1" fill="#aea89c" d="M 191.5,276.5 C 187.426,277.954 183.093,278.621 178.5,278.5C 175.645,278.497 172.978,278.164 170.5,277.5C 177.52,277.498 184.52,277.165 191.5,276.5 Z"/></g>
</svg>
