<?xml version="1.0" encoding="UTF-8"?>
<!DOCTYPE svg PUBLIC "-//W3C//DTD SVG 1.1//EN" "http://www.w3.org/Graphics/SVG/1.1/DTD/svg11.dtd">
<svg xmlns="http://www.w3.org/2000/svg" version="1.1" width="1179px" height="1763px" style="shape-rendering:geometricPrecision; text-rendering:geometricPrecision; image-rendering:optimizeQuality; fill-rule:evenodd; clip-rule:evenodd" xmlns:xlink="http://www.w3.org/1999/xlink">
<g><path style="opacity:1" fill="#fefefe" d="M -0.5,-0.5 C 392.5,-0.5 785.5,-0.5 1178.5,-0.5C 1178.5,587.167 1178.5,1174.83 1178.5,1762.5C 785.5,1762.5 392.5,1762.5 -0.5,1762.5C -0.5,1174.83 -0.5,587.167 -0.5,-0.5 Z"/></g>
<g><path style="opacity:1" fill="#a7a7a7" d="M 355.5,364.5 C 354.883,364.611 354.383,364.944 354,365.5C 353.505,367.473 353.338,369.473 353.5,371.5C 352.578,375.112 351.911,378.779 351.5,382.5C 350.167,382.5 348.833,382.5 347.5,382.5C 347.823,375.978 347.49,369.645 346.5,363.5C 345.053,352.266 339.386,343.933 329.5,338.5C 327.967,336.755 325.967,335.755 323.5,335.5C 321.236,334.781 318.903,334.448 316.5,334.5C 310.347,333.347 304.014,333.18 297.5,334C 296.584,334.278 295.918,334.778 295.5,335.5C 286.302,339.19 280.302,345.856 277.5,355.5C 276.353,359.646 276.186,363.98 277,368.5C 277.2,370.32 278.034,371.653 279.5,372.5C 284.261,380.34 289.761,387.674 296,394.5C 306.65,405.081 317.316,415.748 328,426.5C 331.87,430.905 334.703,435.905 336.5,441.5C 336.41,444.152 337.076,446.485 338.5,448.5C 341.705,474.758 331.705,494.092 308.5,506.5C 304.605,507.462 300.939,508.796 297.5,510.5C 287.899,512.627 278.232,512.96 268.5,511.5C 263.5,509.057 258.166,507.39 252.5,506.5C 249.81,505.454 247.143,504.454 244.5,503.5C 242.152,502.048 239.486,501.382 236.5,501.5C 234.631,501.507 232.964,501.84 231.5,502.5C 229.983,502.511 228.816,503.177 228,504.5C 226.456,506.468 225.289,508.635 224.5,511C 222.866,511.494 221.199,511.66 219.5,511.5C 219.5,510.167 219.5,508.833 219.5,507.5C 220.612,505.401 221.279,503.067 221.5,500.5C 225.649,482.232 229.649,463.899 233.5,445.5C 234.833,445.5 236.167,445.5 237.5,445.5C 237.5,446.833 237.5,448.167 237.5,449.5C 237.5,450.167 237.5,450.833 237.5,451.5C 236.347,457.319 236.181,463.319 237,469.5C 237.39,472.104 238.224,474.438 239.5,476.5C 242.628,484.297 247.628,490.63 254.5,495.5C 254.973,496.906 255.973,497.573 257.5,497.5C 258.492,497.328 259.158,497.662 259.5,498.5C 261.858,500.129 264.524,501.295 267.5,502C 274.346,502.821 281.013,502.654 287.5,501.5C 288.167,501.5 288.833,501.5 289.5,501.5C 292.716,501.655 295.383,500.655 297.5,498.5C 313.039,487.726 318.206,473.06 313,454.5C 311.066,450.241 308.732,446.241 306,442.5C 291.61,426.782 277.277,411.115 263,395.5C 249.793,373.591 251.96,353.424 269.5,335C 273.052,331.727 277.052,329.227 281.5,327.5C 294.645,323.207 307.979,322.54 321.5,325.5C 329.454,328.898 337.621,331.565 346,333.5C 352.3,332.712 356.8,329.379 359.5,323.5C 361.045,322.548 362.712,322.215 364.5,322.5C 361.5,336.501 358.5,350.501 355.5,364.5 Z"/></g>
<g><path style="opacity:1" fill="#cccccc" d="M 321.5,325.5 C 307.979,322.54 294.645,323.207 281.5,327.5C 288.593,323.811 296.26,322.145 304.5,322.5C 309.547,322.558 314.547,323.058 319.5,324C 320.416,324.278 321.082,324.778 321.5,325.5 Z"/></g>
<g><path style="opacity:1" fill="#dadada" d="M 316.5,334.5 C 309.465,334.326 302.465,334.659 295.5,335.5C 295.918,334.778 296.584,334.278 297.5,334C 304.014,333.18 310.347,333.347 316.5,334.5 Z"/></g>
<g><path style="opacity:1" fill="#c9c9c9" d="M 323.5,335.5 C 325.967,335.755 327.967,336.755 329.5,338.5C 327.033,338.245 325.033,337.245 323.5,335.5 Z"/></g>
<g><path style="opacity:1" fill="#bfbfbf" d="M 277.5,355.5 C 277.123,361.323 277.79,366.989 279.5,372.5C 278.034,371.653 277.2,370.32 277,368.5C 276.186,363.98 276.353,359.646 277.5,355.5 Z"/></g>
<g><path style="opacity:1" fill="#c2c2c2" d="M 355.5,364.5 C 355.279,367.067 354.612,369.401 353.5,371.5C 353.338,369.473 353.505,367.473 354,365.5C 354.383,364.944 354.883,364.611 355.5,364.5 Z"/></g>
<g><path style="opacity:1" fill="#cdcdcd" d="M 346.5,363.5 C 347.49,369.645 347.823,375.978 347.5,382.5C 348.833,382.5 350.167,382.5 351.5,382.5C 350.081,383.451 348.415,383.784 346.5,383.5C 346.5,376.833 346.5,370.167 346.5,363.5 Z"/></g>
<g><path style="opacity:1" fill="#d8d8d8" d="M 836.5,387.5 C 833.482,387.704 830.482,388.037 827.5,388.5C 830.373,386.518 833.373,386.185 836.5,387.5 Z"/></g>
<g><path style="opacity:1" fill="#c6c6c6" d="M 929.5,389.5 C 921.387,387.886 913.387,388.219 905.5,390.5C 906.347,389.034 907.68,388.2 909.5,388C 915.5,387.333 921.5,387.333 927.5,388C 928.416,388.278 929.082,388.778 929.5,389.5 Z"/></g>
<g><path style="opacity:1" fill="#a8a8a8" d="M 463.5,426.5 C 460.167,429.167 457.167,432.167 454.5,435.5C 448.115,439.692 441.448,443.359 434.5,446.5C 428.608,448.129 422.941,450.129 417.5,452.5C 415.621,453.341 413.621,453.675 411.5,453.5C 408.848,453.41 406.515,454.076 404.5,455.5C 404.167,455.5 403.833,455.5 403.5,455.5C 397.838,455.969 392.171,456.469 386.5,457C 385.62,458.356 385.286,459.856 385.5,461.5C 385.5,462.167 385.5,462.833 385.5,463.5C 384.353,467.646 384.186,471.98 385,476.5C 385.278,477.416 385.778,478.082 386.5,478.5C 389.02,485.023 393.353,490.023 399.5,493.5C 399.973,494.906 400.973,495.573 402.5,495.5C 409.39,497.722 416.39,498.055 423.5,496.5C 427.162,496.277 430.495,495.277 433.5,493.5C 441.53,487.727 449.697,482.06 458,476.5C 460.319,477.409 460.986,479.075 460,481.5C 445.678,495.738 428.844,505.405 409.5,510.5C 403.491,510.666 397.491,510.499 391.5,510C 388.647,508.57 385.647,507.737 382.5,507.5C 380.745,506.928 379.078,506.094 377.5,505C 370.664,499.14 365.997,491.973 363.5,483.5C 362.68,477.203 362.347,470.869 362.5,464.5C 369.557,424.61 392.557,399.11 431.5,388C 438.5,387.333 445.5,387.333 452.5,388C 457.653,389.383 462.32,391.716 466.5,395C 468.317,396.8 469.484,398.966 470,401.5C 471.593,410.876 469.426,419.209 463.5,426.5 Z"/></g>
<g><path style="opacity:1" fill="#cfcfcf" d="M 519.5,388.5 C 516.14,388.616 512.807,388.949 509.5,389.5C 512.708,387.469 516.041,387.135 519.5,388.5 Z"/></g>
<g><path style="opacity:1" fill="#a7a7a7" d="M 535.5,495.5 C 533.413,496.585 532.08,498.251 531.5,500.5C 527.859,503.805 524.192,507.138 520.5,510.5C 518.833,510.5 517.167,510.5 515.5,510.5C 515.823,504.31 515.49,498.31 514.5,492.5C 513.548,476.155 512.382,459.821 511,443.5C 509.797,429.597 506.464,416.264 501,403.5C 499.421,401.959 497.587,400.792 495.5,400C 490.845,399.501 486.179,399.334 481.5,399.5C 481.5,398.167 481.5,396.833 481.5,395.5C 482.791,395.737 483.791,395.404 484.5,394.5C 491.984,394.169 499.317,393.003 506.5,391C 507.056,390.617 507.389,390.117 507.5,389.5C 508.167,389.5 508.833,389.5 509.5,389.5C 512.807,388.949 516.14,388.616 519.5,388.5C 520.537,389.93 521.204,391.597 521.5,393.5C 522.061,398.176 523.394,402.509 525.5,406.5C 526.434,407.568 526.768,408.901 526.5,410.5C 526.125,415.911 527.125,420.911 529.5,425.5C 529.5,426.167 529.5,426.833 529.5,427.5C 529.439,434.454 530.439,441.121 532.5,447.5C 532.668,454.51 533.001,461.51 533.5,468.5C 533.334,474.509 533.501,480.509 534,486.5C 535.159,487.566 535.992,487.233 536.5,485.5C 551.65,468.516 565.483,450.516 578,431.5C 579.333,428.167 580.667,424.833 582,421.5C 582.667,418.833 582.667,416.167 582,413.5C 577.284,410.451 573.618,406.451 571,401.5C 569.851,389.823 575.017,385.49 586.5,388.5C 595.114,393.816 597.948,401.483 595,411.5C 590.742,422.683 585.409,433.35 579,443.5C 565.765,461.901 551.265,479.234 535.5,495.5 Z"/></g>
<g><path style="opacity:1" fill="#c9c9c9" d="M 682.5,388.5 C 675.349,388.109 668.349,388.775 661.5,390.5C 662.842,389.207 664.509,388.374 666.5,388C 672.016,387.183 677.35,387.349 682.5,388.5 Z"/></g>
<g><path style="opacity:1" fill="#a8a8a8" d="M 682.5,388.5 C 690.384,390.549 695.551,395.549 698,403.5C 700.509,399.472 702.343,395.139 703.5,390.5C 706.086,389.52 708.753,389.187 711.5,389.5C 715.534,389.495 719.534,389.162 723.5,388.5C 720.073,403.345 716.073,418.012 711.5,432.5C 709.603,434.698 708.603,437.364 708.5,440.5C 705.57,452.974 702.07,465.308 698,477.5C 696.282,483.411 695.616,489.411 696,495.5C 696.519,496.516 697.353,497.182 698.5,497.5C 701.107,496.863 703.44,495.696 705.5,494C 709.689,489.312 713.689,484.479 717.5,479.5C 719.053,480.439 720.387,481.606 721.5,483C 719.957,485.042 718.624,487.208 717.5,489.5C 715.413,490.585 714.08,492.251 713.5,494.5C 707.375,500.301 700.708,505.301 693.5,509.5C 688.87,510.229 684.203,510.563 679.5,510.5C 674.907,507.983 672.907,503.983 673.5,498.5C 675.018,490.443 676.518,482.443 678,474.5C 668.136,488.204 655.97,499.204 641.5,507.5C 638.603,508.129 635.936,509.129 633.5,510.5C 632.833,510.5 632.167,510.5 631.5,510.5C 626.797,510.563 622.13,510.229 617.5,509.5C 609.34,504.481 604.507,497.147 603,487.5C 603.66,447.685 620.493,416.519 653.5,394C 656.071,392.546 658.738,391.38 661.5,390.5C 668.349,388.775 675.349,388.109 682.5,388.5 Z"/></g>
<g><path style="opacity:1" fill="#c1c1c1" d="M 723.5,388.5 C 719.534,389.162 715.534,389.495 711.5,389.5C 715.402,387.511 719.402,387.177 723.5,388.5 Z"/></g>
<g><path style="opacity:1" fill="#a8a8a8" d="M 776.5,443.5 C 775.225,445.608 774.725,447.942 775,450.5C 775.847,448.807 776.68,447.14 777.5,445.5C 788.173,426.007 801.84,408.841 818.5,394C 821.556,392.144 824.556,390.311 827.5,388.5C 830.482,388.037 833.482,387.704 836.5,387.5C 842.989,390.489 845.156,395.489 843,402.5C 841.611,406.944 839.944,411.277 838,415.5C 836.568,417.439 834.735,418.772 832.5,419.5C 829.107,419.938 826.107,419.105 823.5,417C 822.531,413.868 821.198,411.034 819.5,408.5C 818.726,407.853 817.726,407.52 816.5,407.5C 814.645,407.34 813.312,408.007 812.5,409.5C 793.892,427.617 779.392,448.617 769,472.5C 764.784,483.98 761.284,495.646 758.5,507.5C 752.167,507.5 745.833,507.5 739.5,507.5C 739.517,505.435 739.85,503.435 740.5,501.5C 746.478,480.777 752.645,460.11 759,439.5C 761.484,430.553 763.651,421.553 765.5,412.5C 766.837,410.651 767.503,408.484 767.5,406C 767.693,403.992 767.026,402.492 765.5,401.5C 765.5,400.833 765.167,400.5 764.5,400.5C 764.389,399.883 764.056,399.383 763.5,399C 758.177,398.501 752.844,398.334 747.5,398.5C 747.5,397.167 747.5,395.833 747.5,394.5C 748.833,394.5 750.167,394.5 751.5,394.5C 757.037,393.913 762.37,392.913 767.5,391.5C 775.653,389.864 783.986,388.531 792.5,387.5C 787.289,406.231 781.956,424.898 776.5,443.5 Z"/></g>
<g><path style="opacity:1" fill="#a8a8a8" d="M 929.5,389.5 C 934.954,392.687 938.787,397.354 941,403.5C 943.209,399.501 945.042,395.334 946.5,391C 950.689,389.369 955.022,388.536 959.5,388.5C 961.5,388.5 963.5,388.5 965.5,388.5C 965.5,389.5 965.5,390.5 965.5,391.5C 961.83,404.849 958.163,418.182 954.5,431.5C 953.076,433.515 952.41,435.848 952.5,438.5C 947.854,455.234 943.021,471.901 938,488.5C 935.832,494.979 937.999,497.812 944.5,497C 950.215,491.952 955.215,486.286 959.5,480C 960.998,479.415 961.998,479.915 962.5,481.5C 963.11,482.391 963.443,483.391 963.5,484.5C 957.119,494.548 948.786,502.548 938.5,508.5C 933.303,510.087 927.969,510.754 922.5,510.5C 920.938,510.267 919.605,509.6 918.5,508.5C 916.299,502.28 915.965,495.946 917.5,489.5C 917.5,488.833 917.5,488.167 917.5,487.5C 918.95,483.657 920.283,479.657 921.5,475.5C 921.167,475.167 920.833,474.833 920.5,474.5C 918.722,476.264 917.389,478.264 916.5,480.5C 910.338,487.496 903.671,493.996 896.5,500C 891.11,503.942 885.444,507.109 879.5,509.5C 873.174,510.779 866.841,510.779 860.5,509.5C 853.248,505.574 848.582,499.574 846.5,491.5C 845.167,483.5 845.167,475.5 846.5,467.5C 853.814,435.026 871.481,409.86 899.5,392C 901.518,391.495 903.518,390.995 905.5,390.5C 913.387,388.219 921.387,387.886 929.5,389.5 Z"/></g>
<g><path style="opacity:1" fill="#c8c8c8" d="M 959.5,388.5 C 961.607,387.532 963.941,387.198 966.5,387.5C 966.768,389.099 966.434,390.432 965.5,391.5C 965.5,390.5 965.5,389.5 965.5,388.5C 963.5,388.5 961.5,388.5 959.5,388.5 Z"/></g>
<g><path style="opacity:1" fill="#cccccc" d="M 767.5,391.5 C 762.37,392.913 757.037,393.913 751.5,394.5C 756.451,392.227 761.784,391.227 767.5,391.5 Z"/></g>
<g><path style="opacity:1" fill="#cfcfcf" d="M 447.5,396.5 C 441.959,394.267 436.293,393.933 430.5,395.5C 435.626,393.029 440.959,392.862 446.5,395C 447.056,395.383 447.389,395.883 447.5,396.5 Z"/></g>
<g><path style="opacity:1" fill="#c7c7c7" d="M 507.5,389.5 C 507.389,390.117 507.056,390.617 506.5,391C 499.317,393.003 491.984,394.169 484.5,394.5C 492.016,392.674 499.683,391.007 507.5,389.5 Z"/></g>
<g><path style="opacity:1" fill="#fdfdfd" d="M 447.5,396.5 C 448.458,397.962 449.624,399.295 451,400.5C 452.44,407.696 451.273,414.362 447.5,420.5C 446.094,420.973 445.427,421.973 445.5,423.5C 435.103,435.531 422.103,443.531 406.5,447.5C 403.478,447.804 400.478,448.304 397.5,449C 396.944,449.383 396.611,449.883 396.5,450.5C 393.5,450.5 390.5,450.5 387.5,450.5C 391.752,430.491 401.752,413.991 417.5,401C 421.578,398.386 425.911,396.553 430.5,395.5C 436.293,393.933 441.959,394.267 447.5,396.5 Z"/></g>
<g><path style="opacity:1" fill="#d7d7d7" d="M 484.5,394.5 C 483.791,395.404 482.791,395.737 481.5,395.5C 481.5,396.833 481.5,398.167 481.5,399.5C 480.549,398.081 480.216,396.415 480.5,394.5C 481.833,394.5 483.167,394.5 484.5,394.5 Z"/></g>
<g><path style="opacity:1" fill="#e3e3e3" d="M 682.5,395.5 C 677.463,395.413 672.463,395.746 667.5,396.5C 667.918,395.778 668.584,395.278 669.5,395C 674.02,394.186 678.354,394.353 682.5,395.5 Z"/></g>
<g><path style="opacity:1" fill="#fdfdfd" d="M 682.5,395.5 C 686.446,396.459 689.113,398.792 690.5,402.5C 692.159,409.378 692.825,416.378 692.5,423.5C 691.181,434.284 688.348,444.617 684,454.5C 676.644,466.194 668.144,477.027 658.5,487C 652.481,491.93 645.648,494.763 638,495.5C 635.456,495.664 633.29,494.997 631.5,493.5C 630.167,491.5 628.5,489.833 626.5,488.5C 623.222,480.374 622.722,472.041 625,463.5C 627.958,452.456 631.791,441.789 636.5,431.5C 637.906,431.027 638.573,430.027 638.5,428.5C 644.67,414.663 654.337,403.996 667.5,396.5C 672.463,395.746 677.463,395.413 682.5,395.5 Z"/></g>
<g><path style="opacity:1" fill="#fdfdfd" d="M 893.5,492.5 C 889.015,494.328 884.348,495.328 879.5,495.5C 877.544,494.508 875.544,493.508 873.5,492.5C 872.167,491.167 870.833,489.833 869.5,488.5C 867.692,480.979 867.025,473.312 867.5,465.5C 872.085,439.49 884.085,417.656 903.5,400C 913.579,392.609 923.413,392.776 933,400.5C 937.106,416.882 935.773,432.882 929,448.5C 923.592,459.651 916.925,469.984 909,479.5C 903.935,484.074 898.769,488.407 893.5,492.5 Z"/></g>
<g><path style="opacity:1" fill="#c1c1c1" d="M 521.5,393.5 C 523.61,397.502 524.943,401.835 525.5,406.5C 523.394,402.509 522.061,398.176 521.5,393.5 Z"/></g>
<g><path style="opacity:1" fill="#d5d5d5" d="M 747.5,398.5 C 752.844,398.334 758.177,398.501 763.5,399C 764.056,399.383 764.389,399.883 764.5,400.5C 758.699,399.92 753.032,399.253 747.5,398.5 Z"/></g>
<g><path style="opacity:1" fill="#e7e7e7" d="M 765.5,401.5 C 767.026,402.492 767.693,403.992 767.5,406C 767.503,408.484 766.837,410.651 765.5,412.5C 765.5,408.833 765.5,405.167 765.5,401.5 Z"/></g>
<g><path style="opacity:1" fill="#d6d6d6" d="M 819.5,408.5 C 817.097,408.448 814.764,408.781 812.5,409.5C 813.312,408.007 814.645,407.34 816.5,407.5C 817.726,407.52 818.726,407.853 819.5,408.5 Z"/></g>
<g><path style="opacity:1" fill="#dadada" d="M 690.5,402.5 C 691.793,403.842 692.626,405.509 693,407.5C 693.817,413.016 693.651,418.35 692.5,423.5C 692.825,416.378 692.159,409.378 690.5,402.5 Z"/></g>
<g><path style="opacity:1" fill="#bebebe" d="M 526.5,410.5 C 528.118,415.256 529.118,420.256 529.5,425.5C 527.125,420.911 526.125,415.911 526.5,410.5 Z"/></g>
<g><path style="opacity:1" fill="#d2d2d2" d="M 819.5,408.5 C 821.198,411.034 822.531,413.868 823.5,417C 826.107,419.105 829.107,419.938 832.5,419.5C 828.986,421.022 825.653,420.522 822.5,418C 821.115,414.961 820.115,411.794 819.5,408.5 Z"/></g>
<g><path style="opacity:1" fill="#d2d2d2" d="M 447.5,420.5 C 447.573,422.027 446.906,423.027 445.5,423.5C 445.427,421.973 446.094,420.973 447.5,420.5 Z"/></g>
<g><path style="opacity:1" fill="#d6d6d6" d="M 638.5,428.5 C 638.573,430.027 637.906,431.027 636.5,431.5C 636.427,429.973 637.094,428.973 638.5,428.5 Z"/></g>
<g><path style="opacity:1" fill="#e7e7e7" d="M 463.5,426.5 C 461.5,430.5 458.5,433.5 454.5,435.5C 457.167,432.167 460.167,429.167 463.5,426.5 Z"/></g>
<g><path style="opacity:1" fill="#c5c5c5" d="M 529.5,427.5 C 531.042,433.953 532.042,440.62 532.5,447.5C 530.439,441.121 529.439,434.454 529.5,427.5 Z"/></g>
<g><path style="opacity:1" fill="#c3c3c3" d="M 711.5,432.5 C 711.097,435.486 710.097,438.152 708.5,440.5C 708.603,437.364 709.603,434.698 711.5,432.5 Z"/></g>
<g><path style="opacity:1" fill="#e1e1e1" d="M 954.5,431.5 C 954.59,434.152 953.924,436.485 952.5,438.5C 952.41,435.848 953.076,433.515 954.5,431.5 Z"/></g>
<g><path style="opacity:1" fill="#d9d9d9" d="M 233.5,445.5 C 234.919,444.549 236.585,444.216 238.5,444.5C 238.784,446.415 238.451,448.081 237.5,449.5C 237.5,448.167 237.5,446.833 237.5,445.5C 236.167,445.5 234.833,445.5 233.5,445.5 Z"/></g>
<g><path style="opacity:1" fill="#c4c4c4" d="M 336.5,441.5 C 337.924,443.515 338.59,445.848 338.5,448.5C 337.076,446.485 336.41,444.152 336.5,441.5 Z"/></g>
<g><path style="opacity:1" fill="#dadada" d="M 776.5,443.5 C 776.328,444.492 776.662,445.158 777.5,445.5C 776.68,447.14 775.847,448.807 775,450.5C 774.725,447.942 775.225,445.608 776.5,443.5 Z"/></g>
<g><path style="opacity:1" fill="#c4c4c4" d="M 406.5,447.5 C 406.389,448.117 406.056,448.617 405.5,449C 402.522,449.696 399.522,450.196 396.5,450.5C 396.611,449.883 396.944,449.383 397.5,449C 400.478,448.304 403.478,447.804 406.5,447.5 Z"/></g>
<g><path style="opacity:1" fill="#d9d9d9" d="M 434.5,446.5 C 429.367,449.658 423.7,451.658 417.5,452.5C 422.941,450.129 428.608,448.129 434.5,446.5 Z"/></g>
<g><path style="opacity:1" fill="#dfdfdf" d="M 411.5,453.5 C 409.562,455.163 407.228,455.829 404.5,455.5C 406.515,454.076 408.848,453.41 411.5,453.5 Z"/></g>
<g><path style="opacity:1" fill="#bdbdbd" d="M 237.5,451.5 C 237.153,459.936 237.819,468.269 239.5,476.5C 238.224,474.438 237.39,472.104 237,469.5C 236.181,463.319 236.347,457.319 237.5,451.5 Z"/></g>
<g><path style="opacity:1" fill="#e1e1e1" d="M 403.5,455.5 C 398.073,457.137 392.407,458.137 386.5,458.5C 386.737,459.791 386.404,460.791 385.5,461.5C 385.286,459.856 385.62,458.356 386.5,457C 392.171,456.469 397.838,455.969 403.5,455.5 Z"/></g>
<g><path style="opacity:1" fill="#e9e9e9" d="M 846.5,467.5 C 845.167,475.5 845.167,483.5 846.5,491.5C 845.778,491.082 845.278,490.416 845,489.5C 844.333,482.833 844.333,476.167 845,469.5C 845.278,468.584 845.778,467.918 846.5,467.5 Z"/></g>
<g><path style="opacity:1" fill="#c3c3c3" d="M 385.5,463.5 C 385.413,468.537 385.746,473.537 386.5,478.5C 385.778,478.082 385.278,477.416 385,476.5C 384.186,471.98 384.353,467.646 385.5,463.5 Z"/></g>
<g><path style="opacity:1" fill="#eaeaea" d="M 917.5,487.5 C 918.008,484.824 918.175,482.157 918,479.5C 917.617,480.056 917.117,480.389 916.5,480.5C 917.389,478.264 918.722,476.264 920.5,474.5C 920.833,474.833 921.167,475.167 921.5,475.5C 920.283,479.657 918.95,483.657 917.5,487.5 Z"/></g>
<g><path style="opacity:1" fill="#c4c4c4" d="M 533.5,468.5 C 533.854,474.406 534.854,480.073 536.5,485.5C 535.992,487.233 535.159,487.566 534,486.5C 533.501,480.509 533.334,474.509 533.5,468.5 Z"/></g>
<g><path style="opacity:1" fill="#dfdfdf" d="M 362.5,464.5 C 362.347,470.869 362.68,477.203 363.5,483.5C 361.961,480.135 361.294,476.469 361.5,472.5C 361.503,469.645 361.836,466.978 362.5,464.5 Z"/></g>
<g><path style="opacity:1" fill="#cccccc" d="M 867.5,465.5 C 867.025,473.312 867.692,480.979 869.5,488.5C 868.034,487.653 867.2,486.32 867,484.5C 866.18,477.986 866.347,471.653 867.5,465.5 Z"/></g>
<g><path style="opacity:1" fill="#d6d6d6" d="M 962.5,481.5 C 964.552,482.053 964.885,483.053 963.5,484.5C 963.443,483.391 963.11,482.391 962.5,481.5 Z"/></g>
<g><path style="opacity:1" fill="#c4c4c4" d="M 626.5,488.5 C 628.5,489.833 630.167,491.5 631.5,493.5C 628.833,492.833 627.167,491.167 626.5,488.5 Z"/></g>
<g><path style="opacity:1" fill="#e2e2e2" d="M 717.5,489.5 C 716.92,491.749 715.587,493.415 713.5,494.5C 714.08,492.251 715.413,490.585 717.5,489.5 Z"/></g>
<g><path style="opacity:1" fill="#dfdfdf" d="M 873.5,492.5 C 875.544,493.508 877.544,494.508 879.5,495.5C 878.833,495.5 878.167,495.5 877.5,495.5C 875.596,495.262 874.262,494.262 873.5,492.5 Z"/></g>
<g><path style="opacity:1" fill="#d2d2d2" d="M 399.5,493.5 C 401.027,493.427 402.027,494.094 402.5,495.5C 400.973,495.573 399.973,494.906 399.5,493.5 Z"/></g>
<g><path style="opacity:1" fill="#c6c6c6" d="M 433.5,493.5 C 430.495,495.277 427.162,496.277 423.5,496.5C 426.505,494.723 429.838,493.723 433.5,493.5 Z"/></g>
<g><path style="opacity:1" fill="#c1c1c1" d="M 893.5,492.5 C 888.654,496.259 883.32,497.259 877.5,495.5C 878.167,495.5 878.833,495.5 879.5,495.5C 884.348,495.328 889.015,494.328 893.5,492.5 Z"/></g>
<g><path style="opacity:1" fill="#d3d3d3" d="M 254.5,495.5 C 256.027,495.427 257.027,496.094 257.5,497.5C 255.973,497.573 254.973,496.906 254.5,495.5 Z"/></g>
<g><path style="opacity:1" fill="#e7e7e7" d="M 917.5,489.5 C 915.965,495.946 916.299,502.28 918.5,508.5C 917.034,507.653 916.2,506.32 916,504.5C 915.333,500.167 915.333,495.833 916,491.5C 916.278,490.584 916.778,489.918 917.5,489.5 Z"/></g>
<g><path style="opacity:1" fill="#e2e2e2" d="M 535.5,495.5 C 534.92,497.749 533.587,499.415 531.5,500.5C 532.08,498.251 533.413,496.585 535.5,495.5 Z"/></g>
<g><path style="opacity:1" fill="#c3c3c3" d="M 297.5,498.5 C 295.383,500.655 292.716,501.655 289.5,501.5C 291.936,500.129 294.603,499.129 297.5,498.5 Z"/></g>
<g><path style="opacity:1" fill="#d8d8d8" d="M 231.5,502.5 C 232.964,501.84 234.631,501.507 236.5,501.5C 239.486,501.382 242.152,502.048 244.5,503.5C 240.202,502.8 235.869,502.467 231.5,502.5 Z"/></g>
<g><path style="opacity:1" fill="#dbdbdb" d="M 259.5,498.5 C 268.589,501.175 277.923,502.175 287.5,501.5C 281.013,502.654 274.346,502.821 267.5,502C 264.524,501.295 261.858,500.129 259.5,498.5 Z"/></g>
<g><path style="opacity:1" fill="#e0e0e0" d="M 221.5,500.5 C 221.279,503.067 220.612,505.401 219.5,507.5C 219.338,505.473 219.505,503.473 220,501.5C 220.383,500.944 220.883,500.611 221.5,500.5 Z"/></g>
<g><path style="opacity:1" fill="#d8d8d8" d="M 514.5,492.5 C 515.49,498.31 515.823,504.31 515.5,510.5C 517.167,510.5 518.833,510.5 520.5,510.5C 518.735,511.461 516.735,511.795 514.5,511.5C 514.5,505.167 514.5,498.833 514.5,492.5 Z"/></g>
<g><path style="opacity:1" fill="#cdcdcd" d="M 252.5,506.5 C 258.166,507.39 263.5,509.057 268.5,511.5C 262.834,510.61 257.5,508.943 252.5,506.5 Z"/></g>
<g><path style="opacity:1" fill="#cfcfcf" d="M 740.5,501.5 C 739.85,503.435 739.517,505.435 739.5,507.5C 745.833,507.5 752.167,507.5 758.5,507.5C 752.021,508.491 745.354,508.824 738.5,508.5C 738.338,506.473 738.505,504.473 739,502.5C 739.383,501.944 739.883,501.611 740.5,501.5 Z"/></g>
<g><path style="opacity:1" fill="#dedede" d="M 308.5,506.5 C 305.374,508.99 301.708,510.323 297.5,510.5C 300.939,508.796 304.605,507.462 308.5,506.5 Z"/></g>
<g><path style="opacity:1" fill="#dbdbdb" d="M 641.5,507.5 C 639.383,509.655 636.716,510.655 633.5,510.5C 635.936,509.129 638.603,508.129 641.5,507.5 Z"/></g>
<g><path style="opacity:1" fill="#cecece" d="M 382.5,507.5 C 385.647,507.737 388.647,508.57 391.5,510C 397.491,510.499 403.491,510.666 409.5,510.5C 403.347,511.653 397.014,511.82 390.5,511C 387.524,510.295 384.858,509.129 382.5,507.5 Z"/></g>
<g><path style="opacity:1" fill="#cecece" d="M 617.5,509.5 C 622.13,510.229 626.797,510.563 631.5,510.5C 629.696,511.162 627.696,511.495 625.5,511.5C 622.473,511.713 619.807,511.047 617.5,509.5 Z"/></g>
<g><path style="opacity:1" fill="#d0d0d0" d="M 693.5,509.5 C 690.983,510.973 688.15,511.64 685,511.5C 682.967,511.494 681.134,511.161 679.5,510.5C 684.203,510.563 688.87,510.229 693.5,509.5 Z"/></g>
<g><path style="opacity:1" fill="#d7d7d7" d="M 860.5,509.5 C 866.841,510.779 873.174,510.779 879.5,509.5C 879.082,510.222 878.416,510.722 877.5,511C 872.5,511.667 867.5,511.667 862.5,511C 861.584,510.722 860.918,510.222 860.5,509.5 Z"/></g>
<g><path style="opacity:1" fill="#d4d4d4" d="M 938.5,508.5 C 937.653,509.966 936.32,510.8 934.5,511C 930.311,511.812 926.311,511.645 922.5,510.5C 927.969,510.754 933.303,510.087 938.5,508.5 Z"/></g>
</svg>
